<?xml version="1.0" standalone="no"?>
<!DOCTYPE svg PUBLIC "-//W3C//DTD SVG 20010904//EN"
 "http://www.w3.org/TR/2001/REC-SVG-20010904/DTD/svg10.dtd">
<svg version="1.0" xmlns="http://www.w3.org/2000/svg"
 width="191.000000pt" height="192.000000pt" viewBox="0 0 191.000000 192.000000"
 preserveAspectRatio="xMidYMid meet">
<metadata>
Created by potrace 1.11, written by Peter Selinger 2001-2013
</metadata>
<g transform="translate(0.000000,192.000000) scale(0.100000,-0.100000)"
fill="#000000" stroke="none">
<path d="M261 1908 c-104 -18 -186 -77 -232 -166 l-24 -47 0 -745 c0 -738 0
-745 21 -791 28 -60 75 -103 138 -125 44 -16 93 -19 376 -21 l325 -4 -53 25
c-64 31 -110 79 -119 126 -8 45 -7 299 1 308 4 3 116 6 249 7 l242 0 3 -152
c3 -173 1 -169 87 -174 61 -3 112 8 118 25 3 7 4 55 3 106 l-2 93 -46 41 c-29
25 -135 86 -280 160 -248 126 -329 174 -361 218 -17 22 -20 42 -19 131 0 67 6
116 15 139 35 84 170 144 377 166 87 9 410 9 486 -1 146 -18 262 -65 304 -122
14 -19 27 -35 30 -35 3 0 5 138 5 308 -2 340 -4 358 -63 431 -33 41 -103 83
-164 98 -34 8 -1368 9 -1417 1z"/>
<path d="M1246 1054 c-29 -16 -29 -16 -23 -93 5 -75 6 -77 50 -116 24 -23 86
-63 138 -89 171 -89 203 -107 316 -182 73 -47 123 -88 140 -113 16 -22 30 -40
33 -41 3 0 5 85 5 189 0 161 -2 190 -15 193 -8 2 -122 3 -252 3 l-238 0 -1 25
c0 14 -1 68 -2 120 -1 52 -6 101 -10 108 -12 17 -106 15 -141 -4z"/>
</g>
</svg>
