<svg xmlns="http://www.w3.org/2000/svg" viewBox="0 0 287.00787 287.00788" height="81mm" width="81mm"><path d="M81.108 286.435c.277-.832 13.14-3.4 26.377-5.267 12.54-1.768 36.525-4.958 37.278-4.958.251 0 .456.316.456.703 0 .387-.18.703-.401.703-.221 0-4.387.729-9.258 1.62-4.871.89-14.657 2.372-21.747 3.291-7.09.92-17.11 2.3-22.266 3.068-10.675 1.59-10.69 1.59-10.44.84zm-14.326-1.632c-.475-.474-.374-5.742.187-9.778.275-1.978.404-3.693.285-3.811-.118-.119-3.433.219-7.366.75-5.162.695-7.321.823-7.76.458-.335-.277-1.726-.545-3.09-.594-1.86-.068-2.518-.279-2.627-.844-.26-1.348 1.222-2.274 3.638-2.274h2.263l.305-3.164c1.047-10.828 1.284-19.418 1.657-60.118.228-24.878.633-47.87.9-51.093 1.449-17.486 3.06-53.017 4.018-88.594.844-31.383 1.035-34.918 1.923-35.655.897-.745 2.073-.205 2.073.953 0 1.68 3.515 1.164 17.268-2.537 34.643-9.321 52.599-13.25 76.042-16.638 18.193-2.63 40.085-6.185 50.596-8.217 5.8-1.122 11.593-2.166 12.872-2.321 1.278-.155 2.534-.49 2.789-.746 1.448-1.448 2.93.555 1.891 2.557-.372.718-.677 2.283-.678 3.478-.001 1.195-.418 4.68-.926 7.743-1.124 6.774-2.088 21.051-1.499 22.205.247.484.223 4.078-.06 8.787-.387 6.46-.344 9.123.229 14.063.389 3.351.867 6.463 1.063 6.914.288.662.122.82-.864.82-.928 0-1.38-.365-1.887-1.523-.497-1.137-.677-1.286-.708-.586-.023.515-.344 3.258-.714 6.094-1.625 12.468-2.732 31.28-3.544 60.234-.264 9.41-.814 24.176-1.221 32.812-.998 21.14-1 46.89-.007 57.891.85 9.413 2.901 23.184 3.55 23.833.607.607.062 1.714-.844 1.715-.423.001-1.164.59-1.646 1.31-1.365 2.038-3.458 3.138-8.03 4.219-8.293 1.961-13.272 2.494-31.64 3.387-23.346 1.135-35.419 2.65-80.157 10.057-9.926 1.643-19.747 3.232-21.825 3.532l-3.78.545-.586 6.56c-.693 7.746-.959 8.708-2.09 7.576zm-2.862-16.536c8.262-1.153 18.184-2.762 31.616-5.128 39.567-6.97 55.714-9.034 81.09-10.37 16.237-.854 29.138-2.29 34.218-3.808.902-.27 2.26-.985 3.015-1.59 1.314-1.05 1.35-1.178.82-2.888-.948-3.064-2.817-15.022-3.65-23.351-1.046-10.456-1.05-36.237-.011-56.954.42-8.378.967-23.566 1.215-33.75 1.02-41.958 1.563-49.816 4.309-62.343 1.048-4.784 1.493-5.715 2.54-5.313.822.316.83.61-.121-4.888-1.383-7.989-.808-32.665 1.007-43.237.376-2.191.755-5.408.841-7.148.19-3.83.82-3.705-8.837-1.748-10.017 2.03-46.88 7.992-56.44 9.128-14.917 1.773-35.871 6.127-64.688 13.44-16.352 4.15-22.968 5.638-24.912 5.606l-2.646-.044-.272 7.141c-.149 3.927-.387 16.738-.528 28.469-.362 30.05-1.533 59.27-3.316 82.734-.55 7.249-.685 15.86-.59 37.97.158 37.007.034 45.45-.825 56.25-.619 7.787-2.13 19.49-2.83 21.913-.312 1.078.69 1.067 8.995-.091zm10.05-23.947c0-.71.115-.737 13.359-3.058 39.908-6.996 42.818-7.366 69.843-8.886 13.17-.74 25.283-1.829 28.562-2.566 2.163-.486 2.92-.055 2.214 1.263-1.012 1.892-9.835 3.099-30.073 4.113-24.645 1.234-28.048 1.59-49.921 5.232-12.862 2.14-29.796 4.38-33.165 4.384-.45 0-.82-.216-.82-.482zm-3.125-14.314c-.155-.404-.095-.91.132-1.127.928-.88 22.172-5.543 35.102-7.706 14.756-2.468 36.465-4.717 61.64-6.387 15.901-1.054 19.04-1.12 19.481-.406.857 1.386-1.117 1.757-14.559 2.74-46.53 3.405-70.483 6.456-93.811 11.95-3.9.92-7.23 1.67-7.398 1.67-.167 0-.432-.33-.587-.734zm.492-17.284c-.445-1.159.256-1.668 2.308-1.677 1.08-.005 4.39-.528 7.355-1.162 24.73-5.286 43.968-7.976 87.188-12.192 14.898-1.454 17.853-1.522 16.715-.384-.55.55-23.982 3.719-46.21 6.25-29.165 3.32-40.033 4.888-55.114 7.948-8.896 1.805-11.902 2.104-12.242 1.217zm-6.04-17.606c-.514-.831.25-1.406 1.869-1.406 1.804 0 28.164-3.605 51.334-7.02 30.582-4.507 53.84-7.325 71.72-8.688 12.55-.958 12.757-.952 12.57.356-.142 1.005-.462 1.082-6.711 1.622-18.134 1.568-38.993 4.129-77.579 9.525-21.117 2.953-47.012 6.08-50.347 6.08-1.411 0-2.696-.211-2.856-.47zm8.419-20.187c-.698-1.128 1.22-1.86 7.895-3.008 8.443-1.453 17.859-3.428 35.616-7.47 25.344-5.77 38.571-8.082 53.91-9.426 6.952-.61 8.955-.651 9.498-.2.937.777.144 1.674-1.8 2.037-.828.155-5.62.702-10.647 1.215-14.397 1.47-24.295 3.246-49.688 8.914-17.317 3.866-24.648 5.336-33.79 6.777-4.232.667-8.363 1.32-9.18 1.451-.85.136-1.628.012-1.814-.29zm1.869-16.885c-.174-.28-.133-.675.089-.878.775-.706 29.562-6.114 42.592-8.002 23.309-3.378 71.638-7.52 72.91-6.248.808.809-.02 2.044-1.372 2.044-.69 0-7.575.425-15.302.944-17.264 1.161-36.877 3.188-54.83 5.667-11.703 1.616-19.186 2.804-39.843 6.325-2.063.351-3.79.643-3.84.648-.05.005-.231-.22-.404-.5zm-2.085-6.498c-.386-.213-1.652-.54-2.812-.727-3.304-.533-4.116-1.545-2.227-2.774 1.56-1.016 15.025-5.09 23.086-6.985 14.963-3.52 27.728-5.365 60.469-8.746 12.633-1.304 26.133-2.763 30-3.242 7.083-.877 8.62-.734 7.21.675-1.17 1.17-15.11 3.127-43.304 6.078-28.229 2.955-40.556 4.727-53.906 7.748-10.761 2.436-20.46 5.372-19.133 5.793 1.325.42 2.291 1.609 1.746 2.147-.234.23-.742.245-1.129.033zm-3.75-23.848c0-1.217 1.827-2.737 3.75-3.121.903-.18 5.121-1.254 9.375-2.385 18.184-4.835 29.246-6.758 68.672-11.932 7.992-1.05 17.833-2.435 21.868-3.08 7.211-1.154 13.412-1.353 13.162-.423-.223.829-1.733 1.126-19.092 3.755-4.125.624-15.727 2.2-25.781 3.502-29.976 3.881-40.746 5.756-58.125 10.116-11.941 2.996-11.782 2.949-12.424 3.722-.789.95-1.405.883-1.405-.154zm-.26-23.56c-.52-.842.212-1.17 7.057-3.169 13.911-4.06 24.161-5.916 54.844-9.925 7.992-1.044 21.387-3.073 29.766-4.509 19.474-3.336 38.675-5.101 35.735-3.284-.808.5-53.56 8.677-69.954 10.844-25.757 3.405-39.031 5.777-51.134 9.136-5.737 1.593-5.877 1.613-6.313.907zm80.534-43.846c-.873-.379-.708-1.951.234-2.235.451-.136 4.512-.79 9.024-1.453 8.512-1.252 20.016-1.52 20.275-.472.135.546-2.97 1.092-15.822 2.782-12.095 1.59-13.01 1.683-13.711 1.378zm-3.758-11.052c.261-.783 16.933-3.8 28.821-5.216 5.358-.639 9.84-1.064 9.962-.946.483.469-1.306 1.015-10.186 3.111-7.058 1.667-11.177 2.354-17.362 2.9-9.921.874-11.483.895-11.235.15zm7.475-11.273c.14-.987.655-1.134 8.119-2.31 8.905-1.405 15.556-2.062 25.43-2.511 5.481-.25 6.68-.19 6.68.335 0 .653-8.318 1.889-23.386 3.476-3.51.37-8.33.985-10.711 1.369-5.924.952-6.315.93-6.132-.359zM73.618 281.605c-1.574-.685-2.027-1.95-.857-2.4.366-.14 1.1-.023 1.63.26.735.394 2.746.233 8.515-.682 16.066-2.548 42.691-5.564 74.5-8.438 7.348-.664 21.376-2.079 31.173-3.145 15.48-1.683 19.255-1.942 28.828-1.972 9.357-.029 11.015.069 11.015.65 0 1-4.316 1.766-13.36 2.373-4.253.286-15.96 1.345-26.015 2.353-10.054 1.01-24.398 2.375-31.875 3.035-33.697 2.978-59.882 5.71-74.297 7.753-7.483 1.06-7.315 1.057-9.257.213zm155.345-22.388c-.484-.782-.666-3.11-.706-9.023-.03-4.383-.373-19.36-.763-33.281-1.036-36.925-1.4-92.1-.776-117.656.492-20.132 1.72-48.349 2.21-50.743.136-.666.557-1.054 1.144-1.054.871 0 .927.323.912 5.273-.01 2.9-.213 10.442-.452 16.758-1.043 27.561-1.463 83.827-.913 122.344.3 21.011.681 43.16.847 49.218.348 12.783.21 19.22-.41 19.22-.242 0-.734-.475-1.093-1.056zm9.143-2.08c-.246-.982-.814-13.283-1.263-27.334-.95-29.704-.631-51.193.763-51.46.674-.128.776 3.057 1.057 33.042.339 36.195.65 46.676 1.373 46.229.254-.157.363.008.244.366-.481 1.447-1.722.966-2.174-.843zm1.59-73.857c-.916-2.96-1.36-18.552-1.541-54.14-.177-34.643-.114-39.962.474-39.962 1.046 0 1.262 3.47 1.514 24.375.573 47.522.635 70.313.193 70.313-.253 0-.54-.264-.64-.586zm-4.633-122.568c-.72-1.165-2.241-5.91-2.897-9.034-.807-3.846-1.479-13.421-1.852-26.403-.132-4.596-.372-8.57-.533-8.83-.514-.832.673-1.607 1.584-1.034.711.449.9 2.394 1.586 16.365.782 15.913 1.295 21.216 2.516 25.989.363 1.419.479 2.75.258 2.97-.22.22-.517.21-.662-.023z"/></svg>