<svg xmlns="http://www.w3.org/2000/svg" viewBox="0 0 258.66142 258.66142" height="73mm" width="73mm"><path d="M104.604 248.607c-5.286-.186-11.614-.594-14.063-.907-29.42-3.757-52.663-17.87-62.623-38.023-11.812-23.899-14.743-55.21-8.117-86.691 2.116-10.054 5.354-20.655 7.793-25.515 2.765-5.509 6.916-11.323 10.578-14.816l2.916-2.782-7.5 2.548c-12.5 4.246-22.36 7.284-23.636 7.282-3.293-.005-5.792-3.557-4.742-6.739.743-2.251 1.565-2.832 6.581-4.649 2.45-.887 8.883-3.406 14.297-5.598 13.933-5.642 20.483-7.942 29.018-10.189 9.412-2.478 10.98-2.28 12.448 1.58.659 1.734-.108 4.257-1.589 5.227-.95.622-1.018.914-.69 2.913.555 3.365.492 30.065-.09 38.19-.558 7.801-.952 9.179-2.89 10.108-2.061.988-3.568-.046-5.543-3.803-2.94-5.593-4.056-12.965-3.278-21.648.254-2.836.587-6.738.74-8.672.189-3.209.649-4.377-.894-.797-.644 1.495-3.329 5.503-5.967 8.906-2.638 3.404-5.377 7.137-6.088 8.297-2.754 4.499-7.544 23.416-9.139 36.094-.962 7.642-1.08 24.714-.22 31.64 1.748 14.072 6.728 29.717 11.816 37.113.855 1.245 3.248 4.026 5.316 6.18 10.082 10.504 25.652 17.527 44.311 19.988 7.81 1.03 27.152 1.44 34.483.729 20.968-2.031 40.682-8.673 57.631-19.416 18.551-11.758 32.603-27.066 41.939-45.688 3.504-6.99 4.658-9.782 7.264-17.584 11.654-34.882 8.203-71.026-9.205-96.4-9.548-13.915-21.405-23.103-37.19-28.817-16.645-6.025-38.162-7.173-57.95-3.09-17.702 3.652-32.128 9.726-43.53 18.326-1.933 1.459-4.043 2.922-4.687 3.252-.645.33-1.766 1.155-2.492 1.832-1.021.954-1.799 1.232-3.437 1.232-1.815 0-2.32-.227-3.538-1.59-1.28-1.433-1.398-1.825-1.194-3.952.25-2.602.753-3.173 6.91-7.843 13.135-9.961 23.983-15.304 39.968-19.685 15.936-4.367 28.1-5.835 42.314-5.107 16.614.85 29.497 4.046 42.405 10.52 9.14 4.585 15.388 9.118 22.062 16.011 15.597 16.11 24.57 35.56 27.866 60.396.852 6.424.981 21.346.246 28.436-3.07 29.6-14.637 56.754-33.116 77.736-24.061 27.321-61.134 44.22-100.026 45.596-3.222.114-10.183.055-15.468-.13z" fill="#396"/></svg>