<svg xmlns="http://www.w3.org/2000/svg" viewBox="0 0 212.59843 212.59842" height="60mm" width="60mm"><path d="M41.348 6.348c-19.39 0-35 15.952-35 35.766v128.37c0 19.815 15.61 35.766 35 35.766h54.088c-2.103-.137-3.698-.682-4.775-1.64-1.118-1.258-1.678-3.214-1.678-5.87V62.906c0-2.656.56-4.542 1.678-5.66 1.257-1.258 3.213-1.887 5.869-1.887h69.804c15.652 0 26.414 3.283 32.284 9.851 3.662 3.919 6.202 8.568 7.632 13.94V42.114c0-19.814-15.61-35.766-35-35.766H41.348zm95.01 86.742v26.832h15.722c3.634 0 6.08-.908 7.338-2.724 1.258-1.957 1.887-4.334 1.887-7.13v-7.126c0-2.795-.629-5.101-1.887-6.918-1.257-1.957-3.704-2.934-7.338-2.934h-15.722zm69.892 18.135a29.338 29.338 0 0 1-1.343 3.875c-1.677 4.053-4.682 6.988-9.014 8.805 3.831.425 7.282 1.431 10.357 3.01v-15.69zm-69.892 46.43v41.086c0 2.655-.627 4.611-1.885 5.869-.958.957-2.485 1.503-4.57 1.64h41.347c2.064 0 4.081-.19 6.045-.537-.768-.272-1.42-.637-1.945-1.103-1.118-1.258-1.678-3.214-1.678-5.87v-32.072c0-3.074-.629-5.311-1.886-6.709-1.118-1.537-3.146-2.304-6.08-2.304h-29.348z" fill="#fc0" stroke="#ff0" stroke-width=".098" stroke-linecap="round" stroke-linejoin="round"/><text y="219.505" x="296.429" style="line-height:125%;-inkscape-font-specification:'ADAM.CG PRO'" font-weight="400" font-size="40" font-family="ADAM.CG PRO" letter-spacing="0" word-spacing="0" transform="translate(-67.88 -74.814)"/></svg>