<svg xmlns="http://www.w3.org/2000/svg" width="25.94" height="37.25" version="1.1" viewBox="0 0 25.94 37.25"><g transform="translate(-79.255 -104.51)"><path d="m92.45 127.29v8.43l8.67 4.03v-10.72z" fill="#00c7ff"/><path d="m92.45 119.12v7.64l8.67 1.75v-10.22z" fill="#00ff60"/><path d="m90.97 106.51-9.21 3.98v21l8.61 3.79v-16.37l5.66-0.74v-7.35z" fill="#ff9600"/><path d="m89.45 108.29v5.2l5.61-1.49-5.61-3.71m-6.46 8.86l3.65-0.63-3.65 0.63m0 2.11l6.62-0.49-6.62 0.49m0 2.04l6.62 0.15-6.62-0.15m0 2.1l6.62 0.81-6.62-0.81m0 2.04l6.62 1.45-6.62-1.45m12.07-7.92v-5.53l-5.59 1.49v-5.18l-8.08 3.66v17.72l8.25 3.74m7.01-11.33l-2.48 2.06m0-2.15l2.48 2.41m-4.87-4.73l8.13-0.31v8.21l-8.13-1.45v-6.46m2.42 11.29s1.92 3.19 1.92 3.19l6.94-2.87m-11.28-3.36l8.13 1.93v8.21l-8.13-3.69v-6.46" fill="none" stroke="#000" stroke-linecap="round" stroke-linejoin="round" stroke-width="0.26"/></g></svg>
