<?xml version="1.0" encoding="UTF-8" standalone="no"?>
<svg
   xmlns:dc="http://purl.org/dc/elements/1.1/"
   xmlns:cc="http://creativecommons.org/ns#"
   xmlns:rdf="http://www.w3.org/1999/02/22-rdf-syntax-ns#"
   xmlns:svg="http://www.w3.org/2000/svg"
   xmlns="http://www.w3.org/2000/svg"
   version="1.1"
   id="svg4197"
   viewBox="0 0 244.48819 244.48819"
   height="69mm"
   width="69mm">
  <defs
     id="defs4199" />
  <metadata
     id="metadata4202">
    <rdf:RDF>
      <cc:Work
         rdf:about="">
        <dc:format>image/svg+xml</dc:format>
        <dc:type
           rdf:resource="http://purl.org/dc/dcmitype/StillImage" />
        <dc:title></dc:title>
      </cc:Work>
    </rdf:RDF>
  </metadata>
  <g
     transform="translate(-27.095903,-137.23596)"
     id="layer1">
    <g
       transform="translate(80.812204,-10.606602)"
       id="g4756">
      <path
         id="path4758"
         d="m 14.45082,390.49786 c -0.14615,-0.14616 -4.9232797,-0.3384 -10.6158297,-0.4272 -9.70495,-0.1514 -10.58186,-0.23865 -14.0686903,-1.39987 -5.41013,-1.80174 -5.43399,-2.51104 -0.1628,-4.84081 2.9927403,-1.32274 3.8961003,-1.50275 7.5000003,-1.49445 2.25360005,0.005 5.46854,0.21432 7.14432,0.46475 4.07947,0.60965 24.2736597,0.66047 25.8345097,0.065 0.67382,-0.25705 1.36186,-0.8237 1.52898,-1.2592 0.43422,-1.13157 0.97184,-27.44066 0.59169,-28.95528 -0.17424,-0.69422 -0.60539,-1.26221 -0.95811,-1.26221 -0.35272,0 -2.38711,2.16211 -4.52086,4.80469 -5.28182,6.54135 -6.81555,8.12544 -9.81996,10.14244 -3.56496,2.39331 -4.82501,2.86564 -7.6392497,2.86362 -4.50446,-0.003 -6.93733,-2.4382 -9.20810995,-9.21602 -1.69571005,-5.06138 -1.79109005,-6.49558 -0.47869,-7.19796 2.07459995,-1.11028 3.84690995,0.75219 5.62006995,5.90598 1.08654,3.1581 2.07889,4.416 3.48373,4.416 1.9752197,0 5.3866897,-2.78054 9.2626197,-7.54958 2.13483,-2.62672 6.24741,-7.53975 9.13908,-10.91783 l 5.25758,-6.14196 0.0158,-5.03907 c 0.0126,-3.99175 -0.11926,-5.03906 -0.63427,-5.03906 -0.35758,0 -3.57437,0.74999 -7.14844,1.66663 -10.08554,2.58666 -19.0267797,3.94922 -28.0607997,4.27622 -4.51043,0.16327 -8.1020603,0.49372 -8.2759203,0.76144 -0.16894,0.26015 0.0105,1.44209 0.39871,2.62654 1.09183,3.33106 1.6334903,28.56756 0.71527,33.32542 -0.88379,4.57951 -1.25769,5.24886 -2.83053,5.06715 -2.08255,-0.24059 -2.47152,-2.8535 -3.01455,-20.24996 -0.42528,-13.62469 -0.39199,-15.91681 0.28634,-19.71447 0.42216,-2.3635 0.76757,-5.06085 0.76757,-5.9941 0,-1.2748 0.30719,-1.93846 1.23509,-2.66835 1.48563,-1.1686 2.39629,-1.22417 3.51217,-0.21431 1.0650503,0.96386 3.6337203,0.95628 11.19024035,-0.033 8.13162995,-1.06459 16.19958965,-2.71943 25.50804965,-5.23204 8.40277,-2.26813 9.62683,-2.33252 12.01494,-0.63203 1.53158,1.09058 2.31424,3.34026 2.31814,6.66331 0.002,2.0417 0.0967,2.22656 1.13615,2.22656 1.64318,0 2.61647,0.46937 2.61647,1.26179 0,0.38101 -0.96283,2.52055 -2.13962,4.75454 l -2.13962,4.0618 0.31581,15.23437 c 0.26243,12.66012 0.18439,16.3829 -0.46185,22.03125 -0.42771,3.73829 -0.89275,7.18467 -1.03343,7.65863 -0.28797,0.97023 -2.83441,2.21111 -3.78719,1.84549 -0.34271,-0.13151 -1.44066,0.32745 -2.43989,1.01992 -2.88458,1.999 -5.65774,2.60095 -11.98246,2.60095 -3.13872,0 -5.82634,-0.11958 -5.9725,-0.26574 z m 40.81096,-28.55031 c -0.92211,-2.0238 0.0325,-3.18112 3.99657,-4.84507 7.46023,-3.13154 16.09522,-4.77638 25.07474,-4.77638 6.71665,0 11.2665,0.53082 20.69598,2.41452 6.93169,1.38473 7.63187,1.43905 15.23437,1.1818 4.38281,-0.1483 10.92188,-0.7067 14.53125,-1.24088 9.30185,-1.37666 22.27329,-2.38432 23.34049,-1.81318 0.51899,0.27776 0.79958,0.86047 0.71139,1.47736 -0.12051,0.84298 -1.27751,1.45049 -6.70813,3.52224 -9.93524,3.79024 -12.79145,4.32679 -24.60937,4.62301 -8.7218,0.21861 -11.05595,0.11561 -17.34375,-0.76533 -3.9961,-0.55986 -9.09614,-1.42434 -11.33344,-1.92107 -6.75172,-1.49903 -14.70343,-2.03069 -20.86724,-1.3952 -6.43896,0.66387 -14.35889,2.50682 -15.86543,3.69186 -0.71916,0.5657 -1.98581,0.8887 -3.70534,0.94489 -2.37804,0.0777 -2.66109,-0.0209 -3.15209,-1.09857 z M -8.0617097,301.21071 C -17.718,300.20417 -19.77128,296.73907 -18.51707,283.56625 c 0.48162,-5.05845 0.51857,-7.17835 0.14072,-8.07334 -0.32864,-0.77844 -0.47472,-4.78174 -0.40734,-11.16321 0.10684,-10.11973 -0.28199,-13.52431 -1.60244,-14.03102 -0.92297,-0.35418 -0.92598,-4.52744 -0.004,-5.29278 0.37111,-0.30799 2.53322,-0.7408 4.80468,-0.96179 2.27147,-0.22099 5.6308803,-0.72424 7.4653503,-1.11833 1.83447,-0.39408 9.00635005,-1.58383 15.9375,-2.64387 6.9311497,-1.06004 15.5098597,-2.54547 19.0637897,-3.30096 7.52331,-1.59928 8.77599,-1.66639 10.16153,-0.54445 1.63469,1.32369 3.10415,8.0127 3.9891,18.15848 0.42711,4.89665 1.29154,11.99805 1.92098,15.7809 1.70983,10.27604 1.86873,13.22947 0.93706,17.41715 -0.43772,1.96749 -0.99378,3.69957 -1.23569,3.84907 -0.24191,0.14951 -0.3081,1.09562 -0.1471,2.10247 0.25865,1.61749 0.16326,1.88695 -0.8193,2.31439 -2.23758,0.97341 -11.15633,2.88237 -18.92452,4.05058 -8.90829,1.33966 -23.52707965,1.86189 -30.8251497,1.10117 z M 10.81032,293.74249 c 13.51194,-1.96926 18.4454,-2.42843 22.61293,-2.10463 4.86251,0.3778 5.04466,0.20147 3.89108,-3.76669 -0.89127,-3.06587 -3.26786,-22.63157 -3.98542,-32.81069 -0.79058,-11.21504 -0.97603,-11.70701 -4.13703,-10.97474 -3.34346,0.77455 -17.30579,2.8526 -29.56112965,4.39966 -6.79329005,0.85756 -12.56879035,1.77655 -12.83444035,2.0422 -0.33149,0.3315 -0.24332,1.6725 0.28113,4.27527 1.08393,5.37943 1.01086,14.36833 -0.16365,20.13178 -0.75137,3.68702 -0.84101,5.08253 -0.47147,7.33925 0.25098,1.53262 0.46065,4.15767 0.46594,5.83345 0.0137,4.3224 0.61349,5.26965 3.7559803,5.93136 4.08551,0.86029 13.1225,0.72742 20.1460797,-0.29622 z m 51.92607,-31.22566 c -0.78654,-1.72626 0.27043,-3.43756 2.94378,-4.76616 5.73809,-2.8517 16.97686,-3.5806 31.30704,-2.03044 16.17679,1.74991 23.15401,1.16176 38.97936,-3.2858 6.90421,-1.94037 18.28125,-1.19829 18.28125,1.19241 0,1.20225 -6.32052,3.16996 -15.9375,4.9617 -2.96485,0.55238 -7.39453,1.50149 -9.84375,2.10915 -10.14329,2.51655 -16.20907,2.60892 -30.86859,0.47007 -11.62968,-1.69678 -17.59768,-1.95372 -22.80329,-0.98173 -5.69738,1.06381 -7.57504,1.65581 -8.5026,2.68075 -1.15824,1.27985 -2.89081,1.10932 -3.5557,-0.34995 z m -73.2542,-48.22415 c -3.60937,-0.33303 -6.61523,-0.6305 -6.67969,-0.66105 -0.0645,-0.0306 -0.11718,-0.55914 -0.11718,-1.17466 0,-0.92865 0.49864,-1.3292 2.92968,-2.35336 5.2312303,-2.20382 8.4658403,-2.60356 21.2109403,-2.62126 8.5138797,-0.0118 12.6160697,-0.20634 14.9998297,-0.71126 1.80459,-0.38224 3.94945,-0.69499 4.76635,-0.69499 2.43732,0 2.9669,-0.40439 2.98159,-2.27671 0.0142,-1.81653 -1.79948,-27.05962 -2.18559,-30.4186 -0.17363,-1.51058 -0.4304,-1.99219 -1.0621,-1.99219 -0.46998,0 -2.61111,2.03799 -4.91243,4.6758 -4.46164,5.11403 -10.3058,10.54176 -15.8160897,14.68914 -4.03485,3.03687 -6.27745995,3.48401 -8.54158,1.70306 -1.51712,-1.19337 -2.65185,-4.81567 -2.65185,-8.46524 0,-2.33508 0.13299,-2.73804 0.99383,-3.01126 1.43792,-0.45638 3.35655,1.16333 3.96697005,3.34893 1.06915,3.82812 2.78845995,2.65487 12.67759965,-8.65111 6.78188,-7.75355 9.57832,-10.42273 12.94753,-12.35834 1.71892,-0.98751 1.75782,-1.07114 1.75782,-3.77899 l 0,-2.76913 -19.8987497,0.16013 c -13.66706,0.10999 -20.0603903,0.32189 -20.4149303,0.67663 -0.35514,0.35535 -0.51163,5.25497 -0.50155,15.70313 0.0174,17.9766 -0.45441,22.56844 -3.12218,30.38956 -1.9004,5.57144 -2.76127,6.77534 -4.06884,5.69016 -0.89075,-0.73926 -0.73871,-4.70345 0.76536,-19.95559 0.65175,-6.60917 1.01623,-14.14975 1.1092,-22.94811 0.13175,-12.467 0.18264,-13.12068 1.04646,-13.44023 2.64665,-0.97906 12.4287803,-1.78077 25.0328103,-2.0516 C 14.35797,150.83089 21.95172,150.4922 23.5704,150.2429 c 10.3538,-1.59463 9.94746,-1.93826 10.36354,8.76434 0.16952,4.36053 0.82441,13.93995 1.4553,21.28761 1.50364,17.51192 1.97973,29.01617 1.25669,30.36717 -1.30016,2.42937 -4.69151,2.46512 -5.93392,0.0625 -0.68906,-1.33249 -2.20945,-1.84158 -2.77361,-0.92873 -0.45419,0.73488 -5.40247,2.82492 -9.14159,3.86119 -2.95221,0.81819 -5.11389,1.0008 -13.1427397,1.11021 -5.32691995,0.0726 -12.53399,-0.1389 -16.1718803,-0.47456 z m 65.01563,-30.81033 c -0.8063,-0.8063 -0.69387,-1.98581 0.27265,-2.8605 2.32727,-2.10616 14.85493,-6.90798 21.6184,-8.28628 6.27512,-1.27879 11.56666,-1.20375 18.79645,0.26657 10.40845,2.11676 18.86885,2.04486 35.83314,-0.30454 10.34492,-1.43268 23.3766,-2.41428 24.81111,-1.86888 2.9428,1.11885 1.14859,2.15337 -8.84738,5.10132 -9.36913,2.76309 -14.31689,3.66171 -23.99711,4.35841 -9.94841,0.71601 -25.15894,-0.60812 -32.95292,-2.86866 -2.41674,-0.70094 -9.29412,-0.57711 -13.21463,0.23795 -4.33154,0.9005 -8.19305,2.16125 -14.53366,4.74513 -5.2071,2.12196 -6.83436,2.43117 -7.78605,1.47948 z"
         style="fill:#3265fd" />
    </g>
  </g>
</svg>
