<?xml version="1.0" encoding="UTF-8" standalone="no"?>
<svg
   xmlns:dc="http://purl.org/dc/elements/1.1/"
   xmlns:cc="http://creativecommons.org/ns#"
   xmlns:rdf="http://www.w3.org/1999/02/22-rdf-syntax-ns#"
   xmlns:svg="http://www.w3.org/2000/svg"
   xmlns="http://www.w3.org/2000/svg"
   version="1.1"
   id="svg4791"
   viewBox="0 0 287.00787 287.00788"
   height="81mm"
   width="81mm">
  <defs
     id="defs4793" />
  <metadata
     id="metadata4796">
    <rdf:RDF>
      <cc:Work
         rdf:about="">
        <dc:format>image/svg+xml</dc:format>
        <dc:type
           rdf:resource="http://purl.org/dc/dcmitype/StillImage" />
        <dc:title></dc:title>
      </cc:Work>
    </rdf:RDF>
  </metadata>
  <g
     transform="translate(-433.75557,29.146613)"
     id="layer1">
    <g
       transform="translate(216.67772,-33.84011)"
       id="g5350">
      <path
         id="path5352"
         d="m 298.18544,291.12848 c 0.27741,-0.83223 13.14036,-3.40076 26.37718,-5.26711 12.53963,-1.76804 36.5251,-4.95819 37.27867,-4.95819 0.25064,0 0.4557,0.3164 0.4557,0.70312 0,0.38672 -0.18071,0.70313 -0.40158,0.70313 -0.22087,0 -4.38688,0.72886 -9.2578,1.61969 -4.87094,0.89084 -14.65702,2.37215 -21.74686,3.29182 -7.08985,0.91966 -17.10938,2.30019 -22.26563,3.06784 -10.67495,1.58925 -10.68994,1.59045 -10.43968,0.8397 z m -14.32594,-1.63155 c -0.47476,-0.47475 -0.37364,-5.74258 0.18769,-9.7784 0.2751,-1.97792 0.40337,-3.69304 0.28503,-3.81137 -0.11833,-0.11834 -3.43333,0.21891 -7.36668,0.74942 -5.16171,0.6962 -7.3209,0.82402 -7.76025,0.45939 -0.3348,-0.27785 -1.72522,-0.54555 -3.08982,-0.59486 -1.86004,-0.0672 -2.51745,-0.27844 -2.62632,-0.84378 -0.25965,-1.34823 1.22137,-2.27415 3.63751,-2.27415 l 2.26269,0 0.30594,-3.16407 c 1.04695,-10.82773 1.28363,-19.41748 1.65641,-60.11718 0.22787,-24.87891 0.63283,-47.8711 0.8999,-51.09375 1.44912,-17.48595 3.06056,-53.01706 4.01797,-88.593749 0.84456,-31.383123 1.03521,-34.918243 1.92289,-35.654952 0.89766,-0.744991 2.07329,-0.204753 2.07329,0.95274 0,1.680205 3.51506,1.163873 17.26805,-2.536524 34.64336,-9.321187 52.5989,-13.249853 76.0424,-16.638041 18.19291,-2.629344 40.08424,-6.184705 50.59579,-8.2172432 5.80078,-1.1216522 11.59304,-2.1660675 12.87169,-2.3209229 1.27865,-0.1548554 2.53372,-0.4904681 2.78906,-0.7458061 1.4479,-1.4479 2.92968,0.5551717 1.8913,2.5566574 -0.37238,0.7177523 -0.67765,2.2828458 -0.67839,3.4779858 -9.4e-4,1.195139 -0.41734,4.67978 -0.92578,7.743647 -1.12397,6.773146 -2.08765,21.050828 -1.49868,22.204145 0.24714,0.483929 0.22265,4.078776 -0.0598,8.787689 -0.38753,6.459558 -0.34425,9.122836 0.22849,14.0625 0.38861,3.351562 0.86708,6.462891 1.06326,6.914062 0.2881,0.66256 0.12195,0.820313 -0.86399,0.820313 -0.92801,0 -1.38041,-0.365255 -1.88691,-1.523438 -0.49702,-1.136503 -0.6769,-1.285321 -0.70825,-0.585937 -0.0231,0.515625 -0.34448,3.257812 -0.71415,6.09375 -1.62532,12.468553 -2.73225,31.280114 -3.54437,60.234374 -0.26394,9.41015 -0.81333,24.17578 -1.22086,32.8125 -0.99747,21.1389 -1.00068,46.88889 -0.007,57.89062 0.84998,9.41281 2.90163,23.18387 3.55069,23.83293 0.60651,0.60652 0.0617,1.71371 -0.84402,1.7153 -0.42359,9.3e-4 -1.16439,0.58985 -1.64621,1.30914 -1.36566,2.0387 -3.45816,3.13821 -8.0302,4.21951 -8.29307,1.96133 -13.27162,2.49433 -31.64063,3.38744 -23.34566,1.13506 -35.41826,2.64967 -80.15624,10.05625 -9.92578,1.64326 -19.7473,3.23284 -21.82559,3.53239 l -3.77871,0.54464 -0.58698,6.56073 c -0.69297,7.74531 -0.95843,8.70759 -2.08997,7.57605 z m -2.86208,-16.53669 c 8.26288,-1.15294 18.18394,-2.76206 31.61604,-5.12788 39.56766,-6.96912 55.71487,-9.0339 81.08978,-10.36911 16.23799,-0.85443 29.13879,-2.29025 34.21875,-3.80845 0.90235,-0.26968 2.25914,-0.98495 3.01511,-1.5895 1.31336,-1.05031 1.34985,-1.17874 0.82065,-2.88846 -0.94843,-3.06425 -2.81804,-15.02201 -3.65107,-23.35179 -1.04562,-10.4556 -1.05053,-36.23623 -0.0108,-56.95312 0.42049,-8.37891 0.96717,-23.56641 1.21483,-33.75 1.0204,-41.958215 1.56352,-49.816588 4.30884,-62.343749 1.04826,-4.783313 1.49331,-5.714217 2.53987,-5.312611 0.82292,0.315783 0.83021,0.610059 -0.12104,-4.88775 -1.38232,-7.989183 -0.80747,-32.665629 1.00723,-43.237139 0.37618,-2.191406 0.75483,-5.408203 0.84146,-7.148438 0.19065,-3.8297672 0.8202,-3.7052451 -8.83722,-1.74795 -10.01717,2.030202 -46.87924,7.992276 -56.44034,9.128663 -14.91681,1.772941 -35.87077,6.126159 -64.68749,13.438929 -16.35246,4.149733 -22.96843,5.63872 -24.91195,5.606673 l -2.64635,-0.04364 -0.27147,7.140692 c -0.14931,3.927381 -0.38713,16.738348 -0.5285,28.468817 -0.36215,30.049313 -1.53335,59.270733 -3.31602,82.734373 -0.55073,7.2487 -0.68457,15.86023 -0.59012,37.96875 0.15811,37.00824 0.0344,45.45062 -0.82441,56.25 -0.61934,7.78826 -2.13129,19.49121 -2.83117,21.91406 -0.31126,1.07754 0.69091,1.06736 8.99539,-0.0914 z M 291.047,249.01347 c 0,-0.71042 0.11552,-0.73686 13.35937,-3.05828 39.90849,-6.99528 42.81887,-7.36555 69.84375,-8.88576 13.16918,-0.7408 25.28238,-1.82895 28.56127,-2.5657 2.16371,-0.48617 2.92017,-0.0548 2.21492,1.26292 -1.01275,1.89234 -9.83509,3.09877 -30.07307,4.11242 -24.64532,1.23439 -28.04792,1.59099 -49.92187,5.23196 -12.86137,2.14082 -29.79601,4.37978 -33.16406,4.3847 -0.45117,4.7e-4 -0.82031,-0.21636 -0.82031,-0.48226 z m -3.12383,-14.31368 c -0.15505,-0.40405 -0.0957,-0.91121 0.1319,-1.12702 0.92757,-0.87957 22.17131,-5.54323 35.1013,-7.70583 14.75669,-2.46811 36.46561,-4.71755 61.64062,-6.38709 15.90091,-1.0545 19.04006,-1.12004 19.48093,-0.40669 0.85665,1.3861 -1.11685,1.75765 -14.55905,2.74107 -46.52957,3.40403 -70.48298,6.45524 -93.81107,11.94973 -3.90078,0.91876 -7.22966,1.67047 -7.39752,1.67047 -0.16786,0 -0.43206,-0.33059 -0.58711,-0.73464 z m 0.49159,-17.28422 c -0.44468,-1.1588 0.25634,-1.66825 2.30834,-1.67753 1.08049,-0.005 4.3903,-0.52743 7.35515,-1.16122 24.72894,-5.28625 43.96772,-7.97672 87.18749,-12.19282 14.89794,-1.4533 17.85275,-1.52107 16.71506,-0.38338 -0.54947,0.54947 -23.98217,3.71863 -46.21029,6.24972 -29.16448,3.32094 -40.03302,4.88829 -55.11414,7.94802 -8.89559,1.80477 -11.90145,2.10365 -12.24161,1.21721 z m -6.03964,-17.60614 c -0.51384,-0.83141 0.24994,-1.40625 1.86844,-1.40625 1.80437,0 28.16419,-3.60429 51.33469,-7.01921 30.58113,-4.50712 53.84049,-7.32501 71.71874,-8.68879 12.5518,-0.95748 12.75744,-0.95165 12.57167,0.35643 -0.14266,1.00444 -0.46245,1.08172 -6.71229,1.62212 -18.13313,1.56788 -38.99226,4.1288 -77.57812,9.52441 -21.11703,2.95287 -47.01252,6.08004 -50.34772,6.08004 -1.41114,0 -2.69607,-0.21094 -2.85541,-0.46875 z m 8.41859,-20.18685 c -0.6975,-1.12858 1.22065,-1.85943 7.89507,-3.00819 8.44292,-1.45314 17.85891,-3.4281 35.61612,-7.47032 25.34394,-5.76925 38.57138,-8.08198 53.91044,-9.42587 6.95142,-0.60903 8.95426,-0.65119 9.49796,-0.19995 0.9363,0.77706 0.14382,1.67388 -1.8002,2.0372 -0.8287,0.15488 -5.62001,0.70159 -10.64736,1.21492 -14.39722,1.47004 -24.29459,3.24566 -49.68749,8.91406 -17.31699,3.86563 -24.64791,5.33597 -33.79098,6.77734 -4.23137,0.66706 -8.3625,1.31995 -9.18028,1.45088 -0.84997,0.13607 -1.6267,0.0118 -1.81328,-0.29007 z m 1.86867,-16.88525 c -0.17322,-0.28027 -0.13293,-0.6753 0.0895,-0.87783 0.77513,-0.70571 29.5615,-6.11409 42.59197,-8.00218 23.30859,-3.37737 71.63821,-7.51906 72.90919,-6.24808 0.80881,0.80881 -0.02,2.04394 -1.3716,2.04394 -0.689,0 -7.57464,0.42508 -15.30141,0.94462 -17.26444,1.16085 -36.87733,3.18784 -54.82993,5.66668 -11.70288,1.6159 -19.18586,2.8037 -39.84375,6.32457 -2.0625,0.35152 -3.79028,0.64335 -3.83952,0.64851 -0.0492,0.005 -0.23125,-0.21995 -0.40447,-0.50023 z m -2.08413,-6.49807 c -0.38672,-0.21272 -1.65235,-0.53984 -2.8125,-0.72692 -3.30359,-0.53274 -4.11563,-1.54445 -2.22657,-2.77406 1.56,-1.01541 15.0251,-5.08964 23.08594,-6.98526 14.96255,-3.51866 27.72806,-5.36484 60.46875,-8.74517 12.63281,-1.30427 26.13281,-2.76333 30,-3.24234 7.08324,-0.87738 8.61909,-0.73365 7.21068,0.67475 -1.17021,1.17021 -15.11087,3.12694 -43.30443,6.07826 -28.22906,2.95504 -40.55669,4.72694 -53.90625,7.74815 -10.76136,2.43546 -20.4591,5.37157 -19.13253,5.79261 1.32406,0.42024 2.29068,1.60925 1.74548,2.14707 -0.234,0.23083 -0.74185,0.24564 -1.12857,0.0329 z m -3.75,-23.84813 c 0,-1.21624 1.82663,-2.73647 3.75,-3.12095 0.90234,-0.18038 5.12109,-1.25351 9.375,-2.38474 18.18324,-4.83542 29.24542,-6.75755 68.67187,-11.93218 7.99218,-1.04896 17.83273,-2.4351 21.86787,-3.08033 7.21118,-1.15308 13.41231,-1.35231 13.16227,-0.42288 -0.22312,0.8294 -1.7332,1.12641 -19.09264,3.75526 -4.125,0.62468 -15.72657,2.20087 -25.78125,3.50264 -29.97588,3.88098 -40.74554,5.75529 -58.125,10.11591 -11.9406,2.99598 -11.78147,2.9483 -12.42366,3.7221 -0.78873,0.95035 -1.40446,0.88248 -1.40446,-0.15483 z m -0.25962,-23.56005 c -0.52029,-0.84184 0.21168,-1.17052 7.05649,-3.16861 13.91083,-4.06076 24.16088,-5.915648 54.84375,-9.924736 7.99218,-1.044277 21.38672,-3.07327 29.76562,-4.508878 19.47397,-3.336595 38.67512,-5.101378 35.73525,-3.284438 -0.80789,0.499304 -53.55908,8.676821 -69.95399,10.844307 -25.75689,3.405175 -39.03089,5.776875 -51.13398,9.136215 -5.73692,1.59235 -5.87665,1.61241 -6.31314,0.90614 z m 80.53305,-43.845212 c -0.87288,-0.379228 -0.70802,-1.951504 0.23437,-2.235243 0.45118,-0.135844 4.51172,-0.789872 9.02344,-1.453397 8.51255,-1.251919 20.01647,-1.519828 20.27497,-0.472172 0.13491,0.546773 -2.96948,1.092773 -15.82184,2.782758 -12.09516,1.590412 -13.01041,1.682404 -13.71094,1.378054 z M 363.3442,53.933432 c 0.26093,-0.782793 16.9331,-3.800386 28.8207,-5.216428 5.35781,-0.638218 9.84083,-1.063916 9.96227,-0.945997 0.48308,0.469078 -1.306,1.015647 -10.18642,3.111983 -7.05828,1.6662 -11.1765,2.353875 -17.36172,2.89913 -9.92146,0.874627 -11.48295,0.895655 -11.23483,0.151312 z m 7.47488,-11.272439 c 0.1403,-0.987872 0.65461,-1.134286 8.11854,-2.311178 8.905,-1.404116 15.5562,-2.060819 25.42968,-2.510783 5.48166,-0.249815 6.67969,-0.189595 6.67969,0.335758 0,0.652283 -8.31679,1.888334 -23.38486,3.475485 -3.50942,0.369654 -8.32967,0.985593 -10.71165,1.368752 -5.92382,0.952886 -6.31435,0.930082 -6.1314,-0.358034 z M 290.69543,286.29808 c -1.57402,-0.68413 -2.02627,-1.95012 -0.85694,-2.39884 0.36658,-0.14066 1.09993,-0.0238 1.62968,0.25972 0.73569,0.39373 2.74715,0.23251 8.51617,-0.68259 16.06549,-2.54835 42.69081,-5.56396 74.50015,-8.43794 7.34766,-0.66387 21.375,-2.07893 31.17188,-3.14458 15.47998,-1.68383 19.25498,-1.94205 28.82812,-1.97192 9.35748,-0.0292 11.01563,0.0686 11.01563,0.64955 0,0.99944 -4.31628,1.76621 -13.35938,2.37325 -4.2539,0.28556 -15.96094,1.34448 -26.01562,2.35315 -10.05469,1.00868 -24.39844,2.37444 -31.875,3.03502 -33.69698,2.97725 -59.88224,5.70954 -74.29687,7.7525 -7.48324,1.06058 -7.31588,1.05673 -9.25782,0.21268 z m 155.34582,-22.38709 c -0.48406,-0.78259 -0.66622,-3.11056 -0.7061,-9.02344 -0.0296,-4.38281 -0.37318,-19.35937 -0.76362,-33.28125 -1.03554,-36.92487 -1.39907,-92.09923 -0.77519,-117.65625 0.49143,-20.131447 1.71993,-48.348144 2.20921,-50.742182 0.13617,-0.666262 0.55753,-1.054687 1.14412,-1.054687 0.87157,0 0.92754,0.323719 0.91168,5.273437 -0.009,2.900391 -0.21251,10.441407 -0.45161,16.757813 -1.04327,27.561279 -1.46298,83.826729 -0.91262,122.343749 0.30023,21.01172 0.68107,43.16015 0.84631,49.21875 0.34863,12.78277 0.21129,19.21875 -0.41013,19.21875 -0.24183,0 -0.73326,-0.47461 -1.09205,-1.05469 z m 9.14239,-2.08001 c -0.2456,-0.98295 -0.81405,-13.28327 -1.26323,-27.33405 -0.94958,-29.70425 -0.63092,-51.19332 0.76311,-51.45993 0.67399,-0.1289 0.77588,3.05617 1.0569,33.04145 0.33922,36.19546 0.65068,46.67584 1.37385,46.22889 0.25333,-0.15656 0.36301,0.008 0.24375,0.36652 -0.4816,1.44629 -1.7226,0.96522 -2.17438,-0.84288 z m 1.59015,-73.85749 c -0.91568,-2.95972 -1.35953,-18.55221 -1.54112,-54.14063 -0.17677,-34.641868 -0.11368,-39.960929 0.474,-39.960929 1.04662,0 1.2622,3.470508 1.51412,24.374999 0.57269,47.52122 0.63513,70.3125 0.19265,70.3125 -0.25211,0 -0.53995,-0.26367 -0.63965,-0.58594 z m -4.6325,-122.568011 c -0.71971,-1.164511 -2.24152,-5.909536 -2.89722,-9.033548 -0.80726,-3.846117 -1.47907,-13.421456 -1.85247,-26.403458 -0.1322,-4.596121 -0.372,-8.569578 -0.53289,-8.829906 -0.51433,-0.832202 0.67357,-1.607355 1.58399,-1.033617 0.71145,0.44835 0.9,2.393245 1.58635,16.364345 0.78177,15.913147 1.29515,21.215764 2.51613,25.98882 0.36299,1.419014 0.47839,2.749739 0.2576,2.97053 -0.2208,0.220795 -0.51713,0.210417 -0.66149,-0.02316 z"
         style="fill-opacity:1" />
    </g>
  </g>
</svg>
