<svg xmlns="http://www.w3.org/2000/svg" width="27.32" height="36.87" version="1.1" viewBox="0 0 27.32 36.87"><g transform="translate(-110.87 -174.74)"><path d="m127.69 176.74-13.84 6.82v21l12.18 5.05v-5.52l10.16 2.3v-25.87z" fill="#ff8e92"/><g transform="matrix(.20169 0 0 .20152 140.15 56.35)" fill="none" stroke="#000"><g transform="matrix(.90702 0 0 .90776 -117.38 31.286)" stroke-width="1.45"/><path d="m-70.64 726.29l43.36 12.11v-118.85l-38.23 11.57v-25.21l-52.28 23.77v16.51m52.19-40.27v25.29l38.38-11.6-38.38-13.69m-3.05 89.56l19.1 1.65m-19.46-14.35l19.46 0.17m-19.1-12.86l19.1-1.32m-19.1-11.37s19.1-2.81 19.1-2.81m-36.69-6.32l5.41-1.23m-18.32-2.61v20.18s23.34-2.96 23.34-2.96l-23.34-17.22m-27.7 64.39l34.72 9.11m-34.72-17.26s34.72 6.4 34.72 6.4m-34.72-14.56s34.72 3.69 34.72 3.69m-34.72-11.85l34.72 0.99m-35.26-9.41s16.13-0.84 16.13-0.84m-23.37-20.74v71.09l58.77 26.73v-90.58l-23.24 2.96v-20.11s-35.53 9.91-35.53 9.91" fill="none" stroke-linecap="round" stroke-linejoin="round" stroke-width="1.31"/></g></g></svg>
