<svg xmlns="http://www.w3.org/2000/svg" width="29.3" height="33.16" version="1.1" viewBox="0 0 29.3 33.16"><g transform="translate(-42.166 -186.33)"><g transform="matrix(.11729 0 0 .11729 -112.25 15.052)" fill="#8d5fd3"><path d="m1413.1 1724.6c9.05 2.14 19.01 1.92 28.56-0.88 14.08-4.13 32.02-18.72 42.9-35.95 13.32-21.09 21.5-47.62 23.43-77.51l0.67-10.37s18.73-0.4 18.73-0.4c11.51-0.25 21.23-0.94 21.86-1.59 0.73-0.75-11.17-13.55-32.68-35.26-16.3-16.45-29.3-29.19-30.14-29.58-1.32-0.61-4.9 4.09-26.26 34.38-12.14 17.21-21.4 30.81-21.4 31.39 0 0.81 2.87 1.03 12.89 0.96l14.06-0.1s-0.44 8.02-0.44 8.02c-0.88 16.03-5.88 34.1-12.77 46.66-3.83 6.98-12.47 17.16-17.69 20.98-5.67 4.15-13.45 7.26-19.56 7.96-4.42 0.5-5.68 0.3-13.38-2.06-7.27-2.23-8.38-2.74-12.12-5.57-6.69-5.05-13.28-12.99-17.68-21.09-0.98-1.8-1.88-3.29-2.01-3.32-0.42-0.09-12.09 18.96-12.09 19.7 0 1.29 4.24 9.69 8.03 15.84 7.59 12.32 16.72 22.2 27.88 29.67 3.39 2.27 14.58 7.04 19.21 8.14m-50.69-98.82c6.18-11.03 11.5-20.9 11.5-21.35 0-0.63-1.72-0.83-7.28-0.87l-6.83-0.05s0.2-5.39 0.2-5.39c0.42-11.23 2.82-24.19 6.49-34.69 2.1-6 7.09-16.1 10.33-20.79 3.52-5.11 9.18-11.14 13.78-14.6 3.77-2.84 4.89-3.36 12.21-5.6 7.76-2.38 9.02-2.58 13.47-2.08 8.71 0.97 18.38 5.76 25.56 12.97 1.69 1.69 3.27 3.05 3.49 3.01 0.75-0.16 24.51-38.19 24.51-39.32 0-1.97-9.36-9.05-16.99-12.96-16.02-8.21-31.13-8.58-46.9-2.34-13.31 5.27-24.06 14.07-33.76 26.91-7.64 10.12-15.83 26.96-20.11 40.91-4.68 15.24-7.29 31.27-7.88 47.89 0 0-0.2 5.7-0.2 5.7l-5.23 0.12c-2.88 0.07-5.07 0.34-5.21 0.65-0.16 0.35 2.58 6.75 8.4 19.54 5.1 11.21 9.6 20.84 9.76 20.88 0.16 0.03 4.85-8.08 10.7-18.51" fill="#8d5fd3"/></g><g transform="matrix(.10246 0 0 .10246 -91.481 37.971)" fill="none" stroke="#000" stroke-width="2.58"><path d="m1413.1 1724.6c9.05 2.14 19.01 1.92 28.56-0.88 14.08-4.13 32.02-18.72 42.9-35.95 13.32-21.09 21.5-47.62 23.43-77.51l0.67-10.37s18.73-0.4 18.73-0.4c11.51-0.25 21.23-0.94 21.86-1.59 0.73-0.75-11.17-13.55-32.68-35.26-16.3-16.45-29.3-29.19-30.14-29.58-1.32-0.61-4.9 4.09-26.26 34.38-12.14 17.21-21.4 30.81-21.4 31.39 0 0.81 2.87 1.03 12.89 0.96l14.06-0.1s-0.44 8.02-0.44 8.02c-0.88 16.03-5.88 34.1-12.77 46.66-3.83 6.98-12.47 17.16-17.69 20.98-5.67 4.15-13.45 7.26-19.56 7.96-4.42 0.5-5.68 0.3-13.38-2.06-7.27-2.23-8.38-2.74-12.12-5.57-6.69-5.05-13.28-12.99-17.68-21.09-0.98-1.8-1.88-3.29-2.01-3.32-0.42-0.09-12.09 18.96-12.09 19.7 0 1.29 4.24 9.69 8.03 15.84 7.59 12.32 16.72 22.2 27.88 29.67 3.39 2.27 14.58 7.04 19.21 8.14m-50.69-98.82c6.18-11.03 11.5-20.9 11.5-21.35 0-0.63-1.72-0.83-7.28-0.87l-6.83-0.05s0.2-5.39 0.2-5.39c0.42-11.23 2.82-24.19 6.49-34.69 2.1-6 7.09-16.1 10.33-20.79 3.52-5.11 9.18-11.14 13.78-14.6 3.77-2.84 4.89-3.36 12.21-5.6 7.76-2.38 9.02-2.58 13.47-2.08 8.71 0.97 18.38 5.76 25.56 12.97 1.69 1.69 3.27 3.05 3.49 3.01 0.75-0.16 24.51-38.19 24.51-39.32 0-1.97-9.36-9.05-16.99-12.96-16.02-8.21-31.13-8.58-46.9-2.34-13.31 5.27-24.06 14.07-33.76 26.91-7.64 10.12-15.83 26.96-20.11 40.91-4.68 15.24-7.29 31.27-7.88 47.89 0 0-0.2 5.7-0.2 5.7l-5.23 0.12c-2.88 0.07-5.07 0.34-5.21 0.65-0.16 0.35 2.58 6.75 8.4 19.54 5.1 11.21 9.6 20.84 9.76 20.88 0.16 0.03 4.85-8.08 10.7-18.51" fill="none" stroke="#000" stroke-width="2.58"/></g></g></svg>
