<?xml version="1.0" encoding="UTF-8" standalone="no"?>
<svg
   xmlns:dc="http://purl.org/dc/elements/1.1/"
   xmlns:cc="http://creativecommons.org/ns#"
   xmlns:rdf="http://www.w3.org/1999/02/22-rdf-syntax-ns#"
   xmlns:svg="http://www.w3.org/2000/svg"
   xmlns="http://www.w3.org/2000/svg"
   version="1.1"
   id="svg2"
   viewBox="0 0 258.66142 258.66142"
   height="73mm"
   width="73mm">
  <defs
     id="defs4" />
  <metadata
     id="metadata7">
    <rdf:RDF>
      <cc:Work
         rdf:about="">
        <dc:format>image/svg+xml</dc:format>
        <dc:type
           rdf:resource="http://purl.org/dc/dcmitype/StillImage" />
        <dc:title></dc:title>
      </cc:Work>
    </rdf:RDF>
  </metadata>
  <g
     transform="translate(-48.074451,-18.384316)"
     id="layer1">
    <path
       id="path6415"
       d="m 152.67808,266.99159 c -5.28516,-0.1861 -11.61328,-0.59425 -14.0625,-0.90701 -29.41978,-3.75683 -52.663311,-17.86954 -62.623331,-38.02283 -11.81139,-23.89939 -14.74297,-55.21079 -8.11665,-86.6917 2.1162,-10.05385 5.35429,-20.65523 7.79327,-25.51488 2.76456,-5.50836 6.91553,-11.32261 10.57764,-14.81607 l 2.91594,-2.781678 -7.5,2.547548 c -12.50012,4.24595 -22.3608,7.28392 -23.63623,7.28206 -3.29231,-0.005 -5.79188,-3.5568 -4.74185,-6.73844 0.743,-2.251308 1.5653,-2.832174 6.58121,-4.648894 2.44922,-0.887086 8.88281,-3.406486 14.29687,-5.59867 13.93302,-5.641552 20.48303,-7.941375 29.017971,-10.188713 9.41207,-2.478295 10.98031,-2.279142 12.44785,1.580789 0.65906,1.733447 -0.10782,4.255992 -1.58886,5.226413 -0.94934,0.622031 -1.01838,0.9138 -0.68924,2.913084 0.55395,3.364814 0.49079,30.064261 -0.0903,38.188811 -0.55806,7.8022 -0.95199,9.1798 -2.89072,10.10901 -2.06104,0.98783 -3.56805,-0.0462 -5.54249,-3.80299 -2.93979,-5.59357 -4.05615,-12.96541 -3.27828,-21.64802 0.25407,-2.83593 0.58695,-6.73828 0.73973,-8.67187 0.18885,-3.20921 0.649,-4.37748 -0.8932,-0.79699 -0.64404,1.49524 -3.329311,5.50306 -5.967271,8.90625 -2.63796,3.40319 -5.37746,7.13683 -6.08779,8.29699 -2.75406,4.49814 -7.54409,23.41528 -9.13934,36.09376 -0.96158,7.64224 -1.08026,24.71332 -0.21997,31.64062 1.7475,14.07141 6.72826,29.71606 11.81544,37.11249 0.85587,1.24438 3.24826,4.0254 5.31643,6.18003 10.082351,10.5039 25.651831,17.5271 44.311001,19.98811 7.80961,1.03004 27.15206,1.43866 34.4831,0.72849 20.96759,-2.03118 40.68223,-8.67298 57.63097,-19.41568 18.55106,-11.7583 32.60311,-27.06651 41.93886,-45.68791 3.50416,-6.98952 4.6579,-9.78221 7.26445,-17.58401 11.654,-34.88209 8.20241,-71.026632 -9.20559,-96.399652 -9.54758,-13.916072 -21.40462,-23.103958 -37.18978,-28.817955 -16.6447,-6.025137 -38.16188,-7.172304 -57.95041,-3.089572 -17.70172,3.652186 -32.12722,9.725352 -43.5294,18.325973 -1.93359,1.458502 -4.04297,2.921941 -4.6875,3.252088 -0.64453,0.330146 -1.7658,1.15457 -2.49172,1.832053 -1.02137,0.953235 -1.79858,1.231788 -3.43688,1.231788 -1.81503,0 -2.31978,-0.226888 -3.53806,-1.590381 -1.27974,-1.432283 -1.39845,-1.825084 -1.19414,-3.951373 0.25005,-2.602361 0.75357,-3.173822 6.9108,-7.843386 13.13471,-9.961193 23.98266,-15.303971 39.96735,-19.684523 15.93556,-4.367093 28.09975,-5.835406 42.31441,-5.107681 16.61353,0.850535 29.49621,4.046721 42.40472,10.520585 9.14065,4.584206 15.3879,9.118101 22.06171,16.011111 15.59704,16.109334 24.57084,35.558981 27.86573,60.395645 0.85218,6.42371 0.9814,21.34582 0.24625,28.43544 -3.0694,29.60036 -14.63714,56.75484 -33.11553,77.73645 -24.06166,27.32123 -61.13393,44.22046 -100.02589,45.59637 -3.22266,0.114 -10.18359,0.055 -15.46875,-0.13108 z"
       style="fill:#339966;fill-opacity:1" />
  </g>
</svg>
