<?xml version="1.0" encoding="UTF-8" standalone="no"?>
<svg
   xmlns:dc="http://purl.org/dc/elements/1.1/"
   xmlns:cc="http://creativecommons.org/ns#"
   xmlns:rdf="http://www.w3.org/1999/02/22-rdf-syntax-ns#"
   xmlns:svg="http://www.w3.org/2000/svg"
   xmlns="http://www.w3.org/2000/svg"
   version="1.1"
   id="svg2"
   viewBox="0 0 212.59843 212.59842"
   height="60mm"
   width="60mm">
  <defs
     id="defs4" />
  <metadata
     id="metadata7">
    <rdf:RDF>
      <cc:Work
         rdf:about="">
        <dc:format>image/svg+xml</dc:format>
        <dc:type
           rdf:resource="http://purl.org/dc/dcmitype/StillImage" />
        <dc:title></dc:title>
      </cc:Work>
    </rdf:RDF>
  </metadata>
  <g
     transform="translate(-67.880824,-74.813726)"
     id="layer1">
    <path
       id="rect4136"
       d="m 109.22887,81.161767 c -19.389998,0 -34.999997,15.951662 -34.999997,35.765623 l 0,128.3711 c -10e-7,19.81395 15.609999,35.76562 34.999997,35.76562 l 54.08789,0 c -2.10339,-0.13721 -3.69781,-0.68277 -4.77539,-1.64062 -1.118,-1.25776 -1.67774,-3.2139 -1.67774,-5.86914 l 0,-135.83594 c 0,-2.65526 0.55974,-4.54216 1.67774,-5.66016 1.25774,-1.25775 3.21388,-1.88672 5.86914,-1.88672 l 69.80469,0 c 15.652,0 26.4137,3.28331 32.2832,9.85157 3.66278,3.91832 6.20258,8.56738 7.63281,13.93945 l 0,-37.03516 c 0,-19.813961 -15.61,-35.765623 -35,-35.765623 l -129.90234,0 z m 95.00976,86.742183 0,26.83204 15.72266,0 c 3.6335,0 6.08014,-0.90786 7.33789,-2.72461 1.25775,-1.9565 1.88672,-4.33391 1.88672,-7.12891 l 0,-7.12695 c 0,-2.795 -0.62897,-5.10122 -1.88672,-6.91797 -1.25775,-1.95651 -3.70439,-2.9336 -7.33789,-2.9336 l -15.72266,0 z m 69.89258,18.13477 c -0.3745,1.35979 -0.81586,2.6568 -1.34375,3.875 -1.677,4.05275 -4.68142,6.98793 -9.01367,8.80469 3.83148,0.42572 7.28245,1.43127 10.35742,3.00976 l 0,-15.68945 z m -69.89258,46.42969 0,41.08594 c 0,2.65524 -0.62702,4.61138 -1.88476,5.86914 -0.95767,0.95767 -2.48468,1.50329 -4.57031,1.64062 l 41.34765,0 c 2.06384,0 4.08099,-0.19026 6.04492,-0.53711 -0.76795,-0.27183 -1.42059,-0.6371 -1.94531,-1.10351 -1.118,-1.25776 -1.67773,-3.2139 -1.67773,-5.86914 l 0,-32.07227 c 0,-3.0745 -0.62897,-5.31148 -1.88672,-6.70898 -1.118,-1.53726 -3.14533,-2.30469 -6.08008,-2.30469 l -29.34766,0 z"
       style="opacity:1;fill:#ffcc00;fill-opacity:1;stroke:#ffff00;stroke-width:0.09772889;stroke-linecap:round;stroke-linejoin:round;stroke-miterlimit:4;stroke-dasharray:none;stroke-opacity:1" />
    <g
       id="text4174"
       style="font-style:normal;font-variant:normal;font-weight:normal;font-stretch:normal;font-size:46.58336258px;line-height:125%;font-family:'ADAM.CG PRO';-inkscape-font-specification:'ADAM.CG PRO';letter-spacing:0px;word-spacing:0px;fill:#ff0000;fill-opacity:1;stroke:none;stroke-width:1px;stroke-linecap:butt;stroke-linejoin:miter;stroke-opacity:1" />
    <g
       transform="translate(180.11265,-71.478589)"
       id="text4138"
       style="font-style:normal;font-variant:normal;font-weight:normal;font-stretch:normal;font-size:53.44797134px;line-height:125%;font-family:'ADAM.CG PRO';-inkscape-font-specification:'ADAM.CG PRO';letter-spacing:0px;word-spacing:0px;fill:#000000;fill-opacity:1;stroke:none;stroke-width:1px;stroke-linecap:butt;stroke-linejoin:miter;stroke-opacity:1" />
    <text
       id="text4170"
       y="219.50504"
       x="296.42856"
       style="font-style:normal;font-variant:normal;font-weight:normal;font-stretch:normal;font-size:40px;line-height:125%;font-family:'ADAM.CG PRO';-inkscape-font-specification:'ADAM.CG PRO';letter-spacing:0px;word-spacing:0px;fill:#000000;fill-opacity:1;stroke:none;stroke-width:1px;stroke-linecap:butt;stroke-linejoin:miter;stroke-opacity:1"
       xml:space="preserve"><tspan
         y="219.50504"
         x="296.42856"
         id="tspan4172" /></text>
  </g>
</svg>
