<?xml version="1.0" encoding="UTF-8" standalone="no"?>
<svg
   xmlns:dc="http://purl.org/dc/elements/1.1/"
   xmlns:cc="http://creativecommons.org/ns#"
   xmlns:rdf="http://www.w3.org/1999/02/22-rdf-syntax-ns#"
   xmlns:svg="http://www.w3.org/2000/svg"
   xmlns="http://www.w3.org/2000/svg"
   version="1.1"
   id="svg2"
   viewBox="0 0 258.66142 258.66142"
   height="73mm"
   width="73mm">
  <defs
     id="defs4" />
  <metadata
     id="metadata7">
    <rdf:RDF>
      <cc:Work
         rdf:about="">
        <dc:format>image/svg+xml</dc:format>
        <dc:type
           rdf:resource="http://purl.org/dc/dcmitype/StillImage" />
        <dc:title></dc:title>
      </cc:Work>
    </rdf:RDF>
  </metadata>
  <g
     transform="translate(-335.97386,-46.667716)"
     id="layer1">
    <g
       transform="translate(249.96168,2.9274045)"
       id="g4147">
      <path
         id="path4159"
         d="m 96.780884,297.28782 c -1.476096,-0.4149 -3.821,-2.38466 -4.575305,-3.84332 -1.059153,-2.04817 -0.520683,-8.50038 0.951928,-11.40644 0.614089,-1.21184 1.116526,-2.58729 1.116526,-3.05655 0,-1.20476 4.181991,-9.61255 6.421697,-12.91067 1.8062,-2.65973 4.59277,-8.23276 7.71871,-15.43707 0.81578,-1.88015 3.37056,-7.31546 5.67728,-12.07848 3.90215,-8.05731 5.42218,-10.82287 13.65321,-24.84061 1.69279,-2.88289 3.90322,-6.88245 4.91206,-8.88793 3.11899,-6.2002 7.1301,-12.6457 9.9183,-15.93781 3.55096,-4.19272 5.53587,-7.62212 9.76952,-16.87916 4.49517,-9.82887 7.96287,-16.43821 10.24639,-19.52928 2.94087,-3.98092 5.08764,-7.72247 10.76219,-18.75718 5.48702,-10.67001 8.31151,-15.52352 11.75984,-20.20776 1.06078,-1.44096 3.65216,-5.89305 5.75862,-9.89352 6.21764,-11.808201 11.03743,-20.113052 15.26781,-26.30757 2.18454,-3.198819 4.90299,-7.506047 6.041,-9.571614 3.68147,-6.68215 11.14232,-16.319101 14.00281,-18.086972 0.83439,-0.515686 1.96455,-0.937611 2.51144,-0.937611 1.6163,0 3.51546,1.227833 4.1066,2.654968 0.30313,0.731821 2.80258,3.541066 5.55435,6.242768 6.06729,5.956918 9.28134,10.634181 15.03088,21.873746 2.30668,4.509265 5.46791,10.147171 7.02493,12.52868 1.55703,2.381512 4.27236,7.201502 6.03405,10.711085 1.7617,3.5096 6.63353,12.32916 10.82627,19.59902 4.19276,7.26988 9.24181,16.49964 11.22011,20.51061 1.97831,4.01096 4.61841,9.13861 5.86689,11.39478 3.50639,6.33649 9.12556,19.03308 15.81423,35.73244 9.11074,22.74646 9.81523,25.07917 12.9331,42.82421 1.01662,5.78596 3.04447,13.30825 4.74869,17.61529 0.59516,1.50411 2.71458,6.11899 4.70984,10.2553 4.12338,8.54805 6.46905,15.33264 6.46905,18.71105 0,4.4131 -3.12799,8.18032 -7.55544,9.09946 -3.56022,0.73909 -6.99445,-0.41474 -9.44686,-3.17397 -0.90079,-1.0135 -1.53349,-1.35609 -2.14562,-1.16181 -1.37244,0.43561 -12.96164,1.32853 -32.58438,2.51058 -4.26165,0.25672 -13.08121,0.85858 -19.59902,1.33747 -6.51781,0.4789 -17.59354,1.09553 -24.61273,1.37029 -59.58621,2.3325 -65.26473,2.60591 -75.88922,3.65415 -8.96181,0.88419 -28.69735,2.73991 -39.19804,3.68578 -5.61205,0.50551 -29.892804,0.96718 -31.221706,0.59365 z"
         style="fill:#fdca00" />
      <path
         id="path4149"
         d="m 93.338958,300.10334 c -0.77989,-0.2269 -2.15099,-1.17091 -3.04687,-2.0978 l -1.62889,-1.68525 0.12113,-4.25539 c 0.0934,-3.27961 0.38195,-4.85799 1.25862,-6.88336 0.62563,-1.44538 1.28556,-3.15531 1.46652,-3.79984 0.67932,-2.41967 4.06806,-9.1228 6.24523,-12.35347 1.24155,-1.84231 3.323502,-5.66997 4.626552,-8.50591 1.30305,-2.83593 3.57602,-7.79297 5.05104,-11.01562 4.84567,-10.58696 9.92046,-20.36229 15.23777,-29.35186 2.87954,-4.8682 5.97862,-10.32783 6.88686,-12.13252 3.20755,-6.3735 7.80904,-14.00219 10.45188,-17.32793 4.73303,-5.95601 6.48077,-8.88691 10.53153,-17.66095 5.62006,-12.17317 8.12972,-17.01505 10.51426,-20.28517 3.3317,-4.56901 6.53353,-10.11348 12.20348,-21.1322 5.44303,-10.57772 8.42362,-15.70855 11.33246,-19.50786 0.91129,-1.19026 3.61577,-5.83089 6.00994,-10.3125 7.70857,-14.429522 11.33166,-20.655013 16.24176,-27.90797 2.64485,-3.906833 5.4471,-8.367762 6.22722,-9.913174 0.78012,-1.545412 2.42816,-4.150726 3.66233,-5.789587 1.23415,-1.63886 2.61173,-3.549328 3.06126,-4.245484 0.44954,-0.696156 1.19581,-1.644342 1.65838,-2.107081 0.46258,-0.462739 1.42536,-1.634306 2.13951,-2.603483 1.33365,-1.809893 4.26554,-3.628485 5.84976,-3.628485 1.18195,0 3.22599,1.64196 3.63046,2.916318 0.17751,0.559274 2.6964,3.348694 5.59754,6.19871 6.33137,6.219809 9.39011,10.701621 15.31764,22.444203 2.31994,4.595859 5.38384,10.080235 6.80867,12.1875 1.42483,2.107266 4.01623,6.679052 5.75869,10.159522 1.74244,3.480471 6.70451,12.445311 11.02682,19.921871 4.3223,7.47657 9.48833,16.86328 11.48007,20.85938 1.99174,3.99609 5.32397,10.53515 7.40495,14.53125 5.09719,9.78811 9.36946,19.45429 16.26351,36.79687 9.0808,22.84351 9.44682,23.99167 11.73028,36.79688 2.88075,16.1547 4.45801,21.37832 9.82631,32.54306 4.72675,9.83047 7.73695,18.13378 7.73695,21.34156 0,5.06838 -3.96064,8.94397 -9.21639,9.01849 -3.23191,0.0459 -4.34946,-0.43409 -7.03966,-3.02306 -1.74198,-1.67643 -2.13172,-1.84943 -3.51563,-1.56052 -2.51349,0.52472 -16.74463,1.66906 -26.86895,2.16057 -5.15625,0.25032 -11.90625,0.66426 -15,0.91986 -15.93739,1.31672 -38.84668,2.43069 -86.95312,4.22811 -13.04176,0.48729 -19.67768,0.95786 -36.32813,2.57611 -20.85005,2.02641 -32.18735,3.02433 -39.84375,3.50709 -8.96904,0.56553 -21.941352,0.55421 -23.917992,-0.0209 z M 111.1248,285.13818 c 3.70372,-0.60056 31.64141,-4.44804 39.06184,-5.37946 3.1582,-0.39643 8.2207,-1.03374 11.25,-1.41626 8.16744,-1.03132 23.07202,-2.47857 28.94531,-2.81063 2.83594,-0.16033 7.79297,-0.49144 11.01563,-0.7358 3.22265,-0.24437 14.92968,-0.86986 26.01562,-1.39 22.20975,-1.04205 32.74684,-1.67746 39.84375,-2.40267 2.57813,-0.26344 6.375,-0.52924 8.4375,-0.59065 2.0625,-0.0614 6.49219,-0.40435 9.84375,-0.76209 3.36957,-0.35966 11.15768,-0.65946 17.42129,-0.67062 6.23015,-0.0111 11.48104,-0.17341 11.66865,-0.36071 0.18762,-0.18728 -0.63551,-2.824 -1.82915,-5.85937 -3.9926,-10.15293 -5.54259,-16.10267 -8.47951,-32.54919 -1.47517,-8.26084 -2.00892,-10.18314 -5.141,-18.51562 -9.19114,-24.45173 -13.99641,-36.02084 -20.21643,-48.67279 -2.4082,-4.89843 -5.7263,-11.7539 -7.37356,-15.23437 -1.64726,-3.48047 -6.27529,-12.44531 -10.2845,-19.92188 -4.00922,-7.47656 -8.48502,-16.18517 -9.94622,-19.35246 -1.4612,-3.16729 -3.63291,-7.26773 -4.82603,-9.112091 -2.08969,-3.23034 -7.63046,-14.586613 -7.63295,-15.644374 -9.4e-4,-0.426159 -3.45056,-7.827102 -5.76816,-12.375448 -0.32842,-0.644531 -0.90402,-1.171875 -1.27911,-1.171875 -0.37509,0 -1.54706,1.613185 -2.60438,3.584855 -1.05732,1.97167 -3.95182,6.456795 -6.43222,9.966944 -6.27745,8.883558 -7.80788,11.486058 -17.94215,30.510699 -1.37335,2.57813 -4.05814,6.87632 -5.96619,9.55154 -3.18604,4.46702 -6.58652,10.40224 -12.65559,22.08909 -3.50449,6.74839 -5.50467,10.04142 -9.62009,15.83814 -2.65931,3.74574 -5.33808,8.50872 -9.17106,16.30657 -5.96343,12.13206 -7.84542,15.26981 -12.91177,21.52716 -4.11658,5.08431 -5.67974,7.4792 -10.18475,15.60379 -1.89959,3.42583 -5.17376,9.01567 -7.27593,12.42187 -5.54744,8.98863 -10.52924,17.97961 -16.15827,29.16184 -2.72539,5.41407 -5.9478,11.53125 -7.16092,13.59375 -4.67734,7.95226 -8.02754,14.33476 -7.75545,14.77501 0.35827,0.5797 1.52316,0.57904 5.11205,-0.003 z m 114.4134,-29.28589 c -8.70418,-1.9405 -12.87016,-4.82439 -14.76755,-10.22281 -1.07494,-3.05838 -1.13048,-4.03656 -0.42397,-7.4669 0.45028,-2.18623 0.89408,-2.84926 3.70207,-5.53088 4.23049,-4.0401 10.00592,-7.03894 14.20545,-7.37604 10.25676,-0.82331 16.85149,7.32239 14.22579,17.57149 -1.52753,5.96253 -4.26553,9.78888 -8.47785,11.84776 -3.60338,1.76124 -4.98372,1.95325 -8.46394,1.17738 z m -3.04687,-43.33988 c -6.26965,-1.27611 -10.78909,-6.35882 -13.12281,-14.75834 -3.26958,-11.7678 -3.06722,-23.79274 0.73237,-43.52208 2.52717,-13.1223 3.80799,-16.14624 7.8529,-18.54041 2.27355,-1.3457 6.43802,-2.13007 9.85361,-1.8559 2.81837,0.22624 3.30556,0.44387 6.70802,2.99655 5.18465,3.88976 7.31378,6.27448 9.50976,10.65138 3.46564,6.90752 4.63667,15.07966 3.30135,23.03871 -0.25952,1.54688 -1.0895,6.96267 -1.84438,12.03508 -2.06527,13.87747 -5.12585,21.60481 -10.46571,26.42377 -3.14573,2.83886 -8.50432,4.34962 -12.52511,3.53124 z"
         style="fill:#020101" />
    </g>
  </g>
</svg>
