<svg xmlns="http://www.w3.org/2000/svg" width="28.63" height="38.46" version="1.1" viewBox="0 0 28.63 38.46"><g transform="translate(-88.603 -143.52)"><path d="m99 145.52 15.99 33.58c0.18 0.28 0.57 1.19-0.32 0.77l-23.97-10.53c-0.1-0.05-0.12-0.17-0.09-0.29l8.39-23.53" fill="#ff0"/><path d="m97.71 147.23c-0.14 0.09-0.27 0.26-0.4 0.53l-6.59 19.58c-0.21 0.53-0.08 1.14 0.11 1.23l20.96 9.65c1.04 0.49 1.36-0.93 0.86-2.03l-14.51-28.94c-0.14-0.1-0.28-0.11-0.41-0.03m0.01 2.28l11.53 24.66c0.11 0.18 0.34 0.78-0.19 0.55l-17.51-7.07c-0.08-0.04-0.09-0.13-0.07-0.22l6.24-17.92m-0.03 4.74c-0.68 0.13-1.2 1.03-1.2 2 0 0.11 0.01 0.22 0.02 0.32 0 0 0.63 7.67 0.63 7.67 0.01 0.43 0.25 0.82 0.55 0.89 0.3 0.06 0.55-0.23 0.57-0.67l0.72-8.13c0.02-0.13 0.03-0.27 0.03-0.4 0-1.07-0.61-1.82-1.32-1.68l0 0m0 11.98c-0.51-0.13-0.91 0.37-0.91 1.11 0 0.74 0.4 1.49 0.91 1.67 0.53 0.19 0.98-0.29 0.98-1.09 0-0.8-0.45-1.56-0.98-1.69"/></g></svg>
