<svg xmlns="http://www.w3.org/2000/svg" width="25.94" height="37.25" viewBox="0 0 25.94 37.25"><path d="M13.195 22.78v8.43l8.67 4.03V24.52z" fill="#00c7ff"/><path d="M13.195 14.61v7.64l8.67 1.75V13.78z" fill="#00ff60"/><path d="M11.715 2l-9.21 3.98v21l8.61 3.79V14.4l5.66-.74V6.31z" fill="#ff9600"/><path d="M10.195 3.78v5.2l5.61-1.49-5.61-3.71m-6.46 8.86l3.65-.63-3.65.63m0 2.11l6.62-.49-6.62.49m0 2.04l6.62.15-6.62-.15m0 2.1l6.62.81-6.62-.81m0 2.04l6.62 1.45-6.62-1.45m12.07-7.92V7.48l-5.59 1.49V3.79l-8.08 3.66v17.72l8.25 3.74m7.01-11.33l-2.48 2.06m0-2.15l2.48 2.41m-4.87-4.73l8.13-.31v8.21l-8.13-1.45v-6.46m2.42 11.29l1.92 3.19 6.94-2.87m-11.28-3.36l8.13 1.93v8.21l-8.13-3.69V23.4" fill="none" stroke="#000" stroke-linecap="round" stroke-linejoin="round" stroke-width=".26"/></svg>