<svg xmlns="http://www.w3.org/2000/svg" viewBox="0 0 244.48819 244.48819" height="69mm" width="69mm"><path d="M68.167 242.655c-.146-.146-4.923-.338-10.616-.427-9.705-.151-10.582-.239-14.068-1.4-5.41-1.802-5.434-2.51-.163-4.84 2.993-1.323 3.896-1.503 7.5-1.495 2.253.005 5.468.214 7.144.465 4.08.61 24.274.66 25.835.065.673-.257 1.361-.824 1.529-1.26.434-1.131.971-27.44.591-28.955-.174-.694-.605-1.262-.958-1.262s-2.387 2.162-4.52 4.805c-5.282 6.541-6.816 8.125-9.82 10.142-3.566 2.393-4.826 2.866-7.64 2.864-4.504-.003-6.937-2.438-9.208-9.216-1.696-5.062-1.791-6.496-.479-7.198 2.075-1.11 3.847.752 5.62 5.906 1.087 3.158 2.08 4.416 3.484 4.416 1.975 0 5.387-2.78 9.263-7.55 2.135-2.627 6.247-7.54 9.139-10.918l5.257-6.142.016-5.039c.013-3.991-.12-5.039-.634-5.039-.358 0-3.574.75-7.149 1.667-10.085 2.587-19.026 3.95-28.06 4.276-4.51.163-8.102.494-8.276.762-.17.26.01 1.442.398 2.626 1.092 3.331 1.634 28.568.716 33.326-.884 4.579-1.258 5.248-2.83 5.067-2.083-.24-2.472-2.854-3.015-20.25-.426-13.625-.392-15.917.286-19.715.422-2.363.768-5.06.768-5.994 0-1.275.307-1.938 1.235-2.668 1.485-1.169 2.396-1.224 3.512-.215 1.065.964 3.634.957 11.19-.033 8.132-1.064 16.2-2.719 25.508-5.232 8.403-2.268 9.627-2.332 12.015-.632 1.532 1.091 2.314 3.34 2.318 6.664.002 2.041.097 2.226 1.136 2.226 1.644 0 2.617.47 2.617 1.262 0 .381-.963 2.52-2.14 4.755l-2.14 4.061.316 15.235c.263 12.66.185 16.383-.461 22.031-.428 3.738-.893 7.185-1.034 7.659-.288.97-2.834 2.21-3.787 1.845-.343-.131-1.44.328-2.44 1.02-2.885 2-5.658 2.601-11.982 2.601-3.14 0-5.827-.12-5.973-.266zm40.811-28.55c-.922-2.024.033-3.181 3.997-4.845 7.46-3.132 16.095-4.776 25.074-4.776 6.717 0 11.267.53 20.696 2.414 6.932 1.385 7.632 1.44 15.235 1.182 4.383-.148 10.922-.707 14.531-1.241 9.302-1.377 22.273-2.384 23.34-1.813.52.278.8.86.712 1.477-.12.843-1.278 1.45-6.708 3.522-9.935 3.79-12.792 4.327-24.61 4.623-8.721.219-11.056.116-17.343-.765-3.996-.56-9.097-1.424-11.334-1.921-6.752-1.499-14.703-2.03-20.867-1.395-6.439.664-14.359 2.507-15.865 3.692-.72.565-1.986.888-3.706.945-2.378.077-2.66-.021-3.152-1.099zm-63.323-60.737c-9.657-1.006-11.71-4.471-10.456-17.644.482-5.059.519-7.179.141-8.074-.329-.778-.475-4.781-.407-11.163.106-10.12-.282-13.524-1.603-14.03-.923-.355-.926-4.528-.004-5.294.371-.308 2.533-.74 4.805-.961 2.271-.221 5.63-.725 7.465-1.119s9.007-1.584 15.938-2.644c6.93-1.06 15.51-2.545 19.063-3.3 7.524-1.6 8.776-1.667 10.162-.545 1.635 1.324 3.104 8.013 3.99 18.158.426 4.897 1.29 11.998 1.92 15.781 1.71 10.276 1.869 13.23.937 17.417-.438 1.968-.994 3.7-1.236 3.85-.241.149-.308 1.095-.147 2.102.259 1.617.164 1.887-.819 2.314-2.238.974-11.156 2.883-18.924 4.051-8.909 1.34-23.528 1.862-30.826 1.101zm18.872-7.468c13.512-1.97 18.445-2.429 22.613-2.105 4.862.378 5.044.202 3.89-3.766-.89-3.066-3.267-22.632-3.985-32.811-.79-11.215-.976-11.707-4.137-10.975-3.343.775-17.306 2.853-29.56 4.4-6.794.857-12.57 1.776-12.835 2.042-.332.332-.244 1.673.28 4.275 1.085 5.38 1.012 14.369-.163 20.132-.751 3.687-.84 5.083-.471 7.34.25 1.532.46 4.157.466 5.833.013 4.322.613 5.27 3.756 5.931 4.085.86 13.122.728 20.146-.296zm51.926-31.226c-.787-1.726.27-3.437 2.943-4.766 5.739-2.852 16.977-3.58 31.308-2.03 16.176 1.75 23.154 1.161 38.979-3.286 6.904-1.94 18.281-1.198 18.281 1.192 0 1.203-6.32 3.17-15.937 4.962-2.965.552-7.395 1.501-9.844 2.11-10.143 2.516-16.21 2.608-30.869.47-11.63-1.698-17.597-1.955-22.803-.983-5.697 1.064-7.575 1.656-8.503 2.681-1.158 1.28-2.89 1.11-3.555-.35zM43.198 66.45c-3.609-.333-6.615-.63-6.68-.66-.064-.032-.116-.56-.116-1.176 0-.928.498-1.329 2.93-2.353 5.23-2.204 8.465-2.604 21.21-2.621 8.514-.012 12.616-.207 15-.711 1.805-.383 3.95-.695 4.766-.695 2.438 0 2.967-.405 2.982-2.277.014-1.817-1.8-27.06-2.186-30.419-.173-1.51-.43-1.992-1.062-1.992-.47 0-2.61 2.038-4.912 4.676-4.462 5.114-10.306 10.542-15.816 14.689-4.035 3.037-6.278 3.484-8.542 1.703-1.517-1.193-2.652-4.816-2.652-8.465 0-2.335.133-2.738.994-3.011 1.438-.457 3.357 1.163 3.967 3.348 1.07 3.829 2.789 2.655 12.678-8.65 6.782-7.754 9.578-10.423 12.947-12.359 1.72-.987 1.758-1.071 1.758-3.779v-2.77l-19.899.161c-13.667.11-20.06.322-20.415.677-.355.355-.511 5.255-.501 15.703.017 17.976-.455 22.568-3.122 30.39-1.9 5.57-2.762 6.775-4.07 5.69-.89-.74-.738-4.704.766-19.956.652-6.61 1.016-14.15 1.11-22.948.131-12.467.182-13.12 1.046-13.44 2.647-.98 12.429-1.781 25.033-2.052 7.662-.165 15.256-.503 16.875-.753C87.64.806 87.234.462 87.65 11.165c.17 4.36.825 13.94 1.456 21.287 1.503 17.512 1.98 29.016 1.256 30.367-1.3 2.43-4.691 2.466-5.934.063-.689-1.333-2.21-1.842-2.773-.929-.454.735-5.403 2.825-9.142 3.861-2.952.819-5.114 1.001-13.143 1.11-5.327.073-12.534-.138-16.172-.474zm65.016-30.81c-.806-.807-.694-1.986.273-2.86 2.327-2.107 14.855-6.909 21.618-8.287 6.275-1.279 11.567-1.204 18.797.267 10.408 2.116 18.868 2.044 35.833-.305 10.345-1.433 23.376-2.414 24.81-1.869 2.944 1.119 1.15 2.154-8.847 5.101-9.369 2.764-14.316 3.662-23.997 4.359-9.948.716-25.159-.608-32.953-2.869-2.416-.7-9.294-.577-13.214.238-4.332.9-8.193 2.161-14.534 4.745-5.207 2.122-6.834 2.431-7.786 1.48z" fill="#3265fd"/></svg>