<svg xmlns="http://www.w3.org/2000/svg" width="27.32" height="36.87" viewBox="0 0 27.32 36.87"><path d="M16.82 2L2.98 8.82v21l12.18 5.05v-5.52l10.16 2.3V5.78z" fill="#ff8e92"/><g fill="none" stroke="#000"><path d="M-70.64 726.29l43.36 12.11V619.55l-38.23 11.57v-25.21l-52.28 23.77v16.51m52.19-40.27v25.29l38.38-11.6-38.38-13.69m-3.05 89.56l19.1 1.65m-19.46-14.35l19.46.17m-19.1-12.86l19.1-1.32m-19.1-11.37l19.1-2.81m-36.69-6.32l5.41-1.23m-18.32-2.61v20.18l23.34-2.96-23.34-17.22m-27.7 64.39l34.72 9.11m-34.72-17.26l34.72 6.4m-34.72-14.56l34.72 3.69m-34.72-11.85l34.72.99m-35.26-9.41l16.13-.84m-23.37-20.74v71.09l58.77 26.73v-90.58l-23.24 2.96v-20.11l-35.53 9.91" stroke-linecap="round" stroke-linejoin="round" stroke-width="1.31" transform="matrix(.20169 0 0 .20152 29.28 -118.39)"/></g></svg>