<svg xmlns="http://www.w3.org/2000/svg" width="29.3" height="33.16" viewBox="0 0 29.3 33.16"><path d="M11.326 31a6.591 6.591 0 0 0 3.35-.103c1.652-.484 3.756-2.196 5.032-4.216 1.562-2.474 2.522-5.586 2.748-9.092l.079-1.216 2.197-.047c1.35-.03 2.49-.11 2.564-.186.085-.088-1.31-1.59-3.834-4.136-1.911-1.93-3.436-3.424-3.535-3.47-.154-.07-.574.48-3.08 4.033-1.424 2.019-2.51 3.614-2.51 3.682 0 .095.337.12 1.512.112l1.65-.011-.052.94c-.104 1.88-.69 4-1.498 5.473-.45.819-1.463 2.013-2.075 2.46-.665.488-1.578.852-2.294.934-.519.06-.666.036-1.57-.241-.852-.262-.982-.322-1.421-.653-.785-.593-1.558-1.524-2.074-2.474-.115-.211-.22-.386-.235-.39-.05-.01-1.419 2.224-1.419 2.311 0 .151.498 1.137.942 1.858.89 1.445 1.961 2.604 3.27 3.48.398.266 1.71.826 2.253.955m-5.945-11.59c.725-1.295 1.349-2.452 1.349-2.505 0-.074-.202-.097-.854-.102l-.801-.006.023-.632c.05-1.317.331-2.837.762-4.069.246-.704.831-1.888 1.211-2.438.413-.6 1.077-1.307 1.616-1.713.443-.333.574-.394 1.433-.657.91-.279 1.058-.302 1.58-.244 1.021.114 2.155.676 2.997 1.522.199.198.384.357.41.353.088-.02 2.875-4.48 2.875-4.612 0-.231-1.098-1.062-1.993-1.52-1.88-.963-3.651-1.007-5.501-.275-1.561.618-2.822 1.65-3.96 3.157-.896 1.187-1.857 3.162-2.359 4.798a21.71 21.71 0 0 0-.924 5.617l-.023.668-.614.015c-.337.008-.594.04-.61.076-.02.04.302.791.984 2.292.599 1.314 1.126 2.444 1.145 2.449.019.003.57-.948 1.255-2.171" fill="#8d5fd3"/><path d="M11.14 28.344c.926.219 1.947.196 2.925-.09 1.443-.424 3.281-1.919 4.396-3.684 1.365-2.161 2.203-4.88 2.4-7.942l.07-1.062 1.918-.041c1.18-.026 2.176-.097 2.24-.163.075-.077-1.144-1.388-3.348-3.613-1.67-1.685-3.002-2.99-3.088-3.03-.136-.063-.502.418-2.691 3.522-1.244 1.763-2.193 3.157-2.193 3.216 0 .083.294.106 1.321.098l1.44-.01-.044.822c-.09 1.642-.603 3.494-1.309 4.78-.392.716-1.278 1.759-1.812 2.15-.581.426-1.378.744-2.004.816-.453.051-.582.03-1.371-.211-.745-.229-.859-.28-1.242-.57-.686-.518-1.36-1.332-1.812-2.162-.1-.184-.192-.337-.206-.34-.043-.01-1.238 1.943-1.238 2.019 0 .132.434.992.822 1.623.778 1.262 1.714 2.274 2.857 3.04.347.232 1.494.72 1.968.834M5.946 18.22c.633-1.13 1.178-2.14 1.178-2.187 0-.065-.176-.085-.746-.09l-.7-.004.02-.553c.044-1.15.29-2.478.666-3.554.215-.615.726-1.65 1.058-2.13.36-.524.94-1.141 1.412-1.496.386-.291.5-.344 1.25-.574.796-.244.925-.264 1.381-.213.892.1 1.883.59 2.619 1.329.173.173.335.313.358.308.076-.016 2.51-3.913 2.51-4.028 0-.202-.958-.928-1.74-1.328-1.641-.841-3.19-.88-4.805-.24C9.043 4 7.94 4.902 6.947 6.217c-.782 1.037-1.621 2.763-2.06 4.192a18.966 18.966 0 0 0-.807 4.907l-.02.584-.537.012c-.295.007-.52.035-.533.067-.017.036.264.691.86 2.002.523 1.148.984 2.135 1 2.14.017.002.497-.829 1.097-1.897" fill="none" stroke="#000" stroke-width=".2643468"/></svg>