<svg xmlns="http://www.w3.org/2000/svg" viewBox="0 0 258.66142 258.66142" height="73mm" width="73mm"><path d="M10.769 253.548c-1.476-.415-3.821-2.385-4.576-3.844-1.059-2.048-.52-8.5.952-11.406.614-1.212 1.117-2.588 1.117-3.057 0-1.205 4.182-9.612 6.422-12.91 1.806-2.66 4.592-8.233 7.718-15.438.816-1.88 3.37-7.315 5.678-12.078 3.902-8.057 5.422-10.823 13.653-24.84 1.693-2.884 3.903-6.883 4.912-8.889 3.119-6.2 7.13-12.645 9.918-15.937 3.551-4.193 5.536-7.622 9.77-16.88 4.495-9.828 7.962-16.438 10.246-19.529 2.94-3.98 5.088-7.722 10.762-18.757 5.487-10.67 8.312-15.524 11.76-20.208 1.06-1.44 3.652-5.893 5.759-9.893 6.217-11.808 11.037-20.113 15.267-26.308 2.185-3.199 4.903-7.506 6.041-9.571 3.682-6.683 11.143-16.32 14.003-18.087.835-.516 1.965-.938 2.512-.938 1.616 0 3.515 1.228 4.106 2.655.303.732 2.803 3.541 5.555 6.243 6.067 5.957 9.281 10.634 15.03 21.873 2.307 4.51 5.468 10.148 7.025 12.53 1.558 2.38 4.273 7.2 6.035 10.71 1.761 3.51 6.633 12.33 10.826 19.6 4.193 7.27 9.242 16.499 11.22 20.51 1.978 4.01 4.618 9.138 5.867 11.395 3.506 6.336 9.125 19.033 15.814 35.732 9.11 22.747 9.815 25.08 12.933 42.824 1.017 5.786 3.045 13.309 4.749 17.616.595 1.504 2.714 6.119 4.71 10.255 4.123 8.548 6.469 15.332 6.469 18.71 0 4.414-3.128 8.181-7.556 9.1-3.56.74-6.994-.414-9.447-3.174-.9-1.013-1.533-1.356-2.145-1.161-1.373.435-12.962 1.328-32.585 2.51-4.261.257-13.08.859-19.599 1.338-6.517.479-17.593 1.095-24.612 1.37-59.587 2.332-65.265 2.606-75.89 3.654-8.961.884-28.697 2.74-39.198 3.686-5.612.505-29.892.967-31.221.594z" fill="#fdca00"/><path d="M7.327 256.363c-.78-.227-2.151-1.17-3.047-2.098L2.65 252.58l.121-4.255c.094-3.28.382-4.858 1.259-6.884.625-1.445 1.285-3.155 1.466-3.8.68-2.42 4.068-9.122 6.246-12.353 1.241-1.842 3.323-5.67 4.626-8.506 1.303-2.836 3.576-7.793 5.051-11.016 4.846-10.587 9.92-20.362 15.238-29.351 2.88-4.869 5.979-10.328 6.887-12.133 3.207-6.373 7.809-14.002 10.452-17.328 4.733-5.956 6.48-8.887 10.531-17.66 5.62-12.174 8.13-17.016 10.514-20.286 3.332-4.57 6.534-10.114 12.204-21.132 5.443-10.578 8.424-15.709 11.332-19.508.912-1.19 3.616-5.831 6.01-10.313 7.709-14.43 11.332-20.655 16.242-27.908 2.645-3.906 5.447-8.367 6.227-9.913.78-1.545 2.428-4.15 3.663-5.79 1.234-1.638 2.611-3.549 3.06-4.245.45-.696 1.197-1.644 1.66-2.107.462-.463 1.425-1.634 2.139-2.603 1.333-1.81 4.265-3.629 5.85-3.629 1.181 0 3.226 1.642 3.63 2.916.177.56 2.696 3.35 5.598 6.2 6.33 6.219 9.39 10.7 15.317 22.443 2.32 4.596 5.384 10.08 6.809 12.188 1.425 2.107 4.016 6.679 5.759 10.16 1.742 3.48 6.704 12.445 11.026 19.921 4.323 7.477 9.489 16.864 11.48 20.86a1115.179 1115.179 0 0 0 7.405 14.53c5.098 9.789 9.37 19.455 16.264 36.798 9.08 22.843 9.447 23.991 11.73 36.797 2.88 16.154 4.458 21.378 9.826 32.543 4.727 9.83 7.737 18.133 7.737 21.341 0 5.069-3.96 8.944-9.216 9.019-3.232.046-4.35-.434-7.04-3.023-1.742-1.677-2.131-1.85-3.515-1.56-2.514.524-16.745 1.668-26.87 2.16-5.155.25-11.905.664-15 .92-15.937 1.316-38.846 2.43-86.952 4.228-13.042.487-19.678.958-36.328 2.576-20.85 2.026-32.188 3.024-39.844 3.507-8.97.565-21.942.554-23.918-.021zm17.786-14.965c3.703-.6 31.641-4.448 39.061-5.38 3.159-.396 8.221-1.033 11.25-1.416 8.168-1.031 23.072-2.478 28.946-2.81 2.836-.16 7.793-.492 11.015-.736 3.223-.245 14.93-.87 26.016-1.39 22.21-1.042 32.747-1.678 39.844-2.403 2.578-.263 6.375-.53 8.437-.59 2.063-.062 6.492-.405 9.844-.763 3.37-.36 11.158-.66 17.421-.67 6.23-.011 11.481-.174 11.669-.361.188-.187-.636-2.824-1.83-5.86-3.992-10.152-5.542-16.102-8.479-32.549-1.475-8.26-2.009-10.183-5.14-18.515-9.192-24.452-13.997-36.021-20.217-48.673a1414.121 1414.121 0 0 1-7.374-15.234c-1.647-3.48-6.275-12.446-10.284-19.922-4.01-7.477-8.485-16.185-9.946-19.353-1.462-3.167-3.633-7.267-4.826-9.112-2.09-3.23-7.63-14.586-7.633-15.644-.001-.426-3.451-7.827-5.769-12.376-.328-.644-.904-1.171-1.279-1.171-.375 0-1.547 1.613-2.604 3.584-1.057 1.972-3.952 6.457-6.432 9.967-6.278 8.884-7.808 11.486-17.942 30.511-1.374 2.578-4.059 6.876-5.967 9.552-3.186 4.467-6.586 10.402-12.655 22.089-3.505 6.748-5.505 10.041-9.62 15.838-2.66 3.746-5.338 8.508-9.171 16.306-5.964 12.132-7.846 15.27-12.912 21.528-4.117 5.084-5.68 7.479-10.185 15.603-1.9 3.426-5.174 9.016-7.276 12.422-5.547 8.989-10.529 17.98-16.158 29.162-2.725 5.414-5.948 11.531-7.161 13.594-4.677 7.952-8.028 14.335-7.755 14.775.358.58 1.523.579 5.112-.003zm114.413-29.286c-8.704-1.94-12.87-4.824-14.768-10.223-1.074-3.058-1.13-4.036-.424-7.467.45-2.186.895-2.849 3.703-5.53 4.23-4.04 10.005-7.04 14.205-7.377 10.257-.823 16.852 7.323 14.226 17.572-1.528 5.962-4.266 9.789-8.478 11.848-3.603 1.76-4.984 1.953-8.464 1.177zm-3.047-43.34c-6.27-1.276-10.789-6.359-13.123-14.758-3.27-11.768-3.067-23.793.733-43.522 2.527-13.123 3.808-16.147 7.853-18.54 2.273-1.346 6.438-2.13 9.853-1.857 2.819.227 3.306.444 6.708 2.997 5.185 3.89 7.314 6.274 9.51 10.651 3.466 6.908 4.637 15.08 3.301 23.039-.26 1.547-1.09 6.963-1.844 12.035-2.065 13.878-5.126 21.605-10.466 26.424-3.145 2.839-8.504 4.35-12.525 3.531z" fill="#020101"/></svg>