<svg xmlns="http://www.w3.org/2000/svg" width="28.63" height="38.46" viewBox="0 0 28.63 38.46"><path d="M10.397 2l15.99 33.58c.18.28.57 1.19-.32.77L2.097 25.82c-.1-.05-.12-.17-.09-.29L10.397 2" fill="#ff0"/><path d="M9.107 3.71c-.14.09-.27.26-.4.53l-6.59 19.58c-.21.53-.08 1.14.11 1.23l20.96 9.65c1.04.49 1.36-.93.86-2.03L9.537 3.73c-.14-.1-.28-.11-.41-.03m.01 2.28l11.53 24.66c.11.18.34.78-.19.55l-17.51-7.07c-.08-.04-.09-.13-.07-.22l6.24-17.92m-.03 4.74c-.68.13-1.2 1.03-1.2 2 0 .11.01.22.02.32l.63 7.67c.01.43.25.82.55.89.3.06.55-.23.57-.67l.72-8.13c.02-.13.03-.27.03-.4 0-1.07-.61-1.82-1.32-1.68m0 11.98c-.51-.13-.91.37-.91 1.11 0 .74.4 1.49.91 1.67.53.19.98-.29.98-1.09s-.45-1.56-.98-1.69"/></svg>