<svg xmlns="http://www.w3.org/2000/svg" viewBox="0 0 661.4 214.3"><path fill="#b8ea6a" d="M31.1 7.5c-13.3 0-24 10.7-24 24v111.9c0 13.3 10.7 24 24 24h61c-16.5-1.6-33.9-7.8-33.9-17.5v-20.3h48v19.5c0 .9 1.1 2.6 6.5 2.6s6.7-1.4 6.5-2.6c0-.6.1-16.1.1-16.1 0-12.8-62.5-9.1-61.6-40.4 0 0-.1.4-.1-9.8 0-10.2 8.7-21 57.1-20.6 32.8.1 49.8 8.9 52.3 18.4v-49c0-13.3-10.7-24-24-24zm83.6 71.6c-2.5 0-4.5 1-4.5 1.9v13.1c0 12.8 49.3 8 56.9 31.2V98v.8h-47.8V80.9c0-1-2.1-1.9-4.6-1.9z"/><path fill="#fff" d="M332.5 7.9h30v159.2h-30zM510.6 101.7V78.1c0-13.9-11.2-25.1-25.1-25.1h-12.3c-13.9 0-25.1 11.2-25.1 25.1v64.3c0 13.9 11.2 25.1 25.1 25.1h12.3c13.9 0 25.1-11.2 25.1-25.1V118l-28.4.1v24.6c0 1.6-1.3 2.9-2.9 2.9-1.6 0-2.9-1.3-2.9-2.9V77.8c0-1.6 1.3-2.9 2.9-2.9 1.6 0 2.9 1.3 2.9 2.9v23.9zM284.9 53c-13.9 0-25.1 11.2-25.1 25.1v64.3c0 13.9 11.2 25.1 25.1 25.1h12.3c13.9 0 25.1-11.2 25.1-25.1V78.1c0-13.9-11.2-25.1-25.1-25.1h-12.3zm6.1 21.9c1.6 0 2.9 1.3 2.9 2.9v64.9c0 1.6-1.3 2.9-2.9 2.9-1.6 0-2.9-1.3-2.9-2.9V77.8c0-1.6 1.3-2.9 2.9-2.9zm224.6 109.7h5.1c10 0 16.2-4.3 16.2-15.2 0-4.2-22-108.1-24.5-115.4h31.3l7.3 47.9 6.4-47.8 29.8-.1c0 1.1-5.4 31.1-12 66.5-12.9 69.3-14 73.4-22.5 79.8-6.2 4.7-14.6 6.9-26.6 6.9h-10.5zM214.9 7.1c-31.1-.5-36.7 15.8-36.7 31.2 0 15.4.1 14.8.1 14.8-.5 47.5 39.6 41.8 39.6 61.3 0 0-.1 23.5-.1 24.4.1 1.8-.7 4-4.2 4s-4.2-2.6-4.2-4v-29.6h-30.8V140c0 17.2 15.1 27 26.9 27.3h16.1c15.1 0 27.1-11.8 27.5-26.6v-28c0-46.6-37.2-36.3-37.2-57.3V35.5c0-1.3 1.3-2.9 2.9-2.9 1.6 0 3 1.3 3 2.9v27.2h30.7l.2-24.5c-.2-15.5-11.1-30.9-33.8-31.1zm408.8 45.8c-27.9-.4-32.9 11.3-32.9 22.3v10.6c-.5 33.9 35.5 29.8 35.5 43.7 0 0-.1 16.8-.1 17.4.1 1.3-.6 2.9-3.8 2.9-3.1 0-3.8-1.9-3.7-2.9v-21.1h-27.6v22c0 12.2 13.5 19.3 24.1 19.5h14.4c13.6 0 24.3-8.4 24.7-19v-20c0-33.2-33.3-25.9-33.3-40.8V73.3c0-.9 1.2-2 2.6-2 1.4 0 2.7.9 2.7 2v19.4h27.5l.2-17.5c-.1-11.1-9.9-22.1-30.3-22.2zm-215.2.8v87.8c0 1.6-1.3 2.9-2.9 2.9-1.6 0-2.9-1.3-2.9-2.9V53.7l-29 .1s.1 78.2.1 88.8c0 15 10 24.9 25.5 24.9 0 0 11.5.7 15.9-4.1v3.5l23.1-.1-.1-113.1"/></svg>