<svg version="1" xmlns="http://www.w3.org/2000/svg" width="933.333" height="933.333" viewBox="0 0 700.000000 700.000000"><path d="M97.5 8.1c-2.2.4-5.6 1-7.6 1.3-2 .3-4.9 1-6.5 1.6-1.6.6-3.1 1.1-3.4 1.1-1.3-.2-8.2 2.5-15.4 6.1-25.2 12.3-44.1 34.5-52.7 61.7-5 15.9-4.8 5.1-4.5 272.6.1 137.5.5 251.8 1 254 1.2 6.6 5.6 20.6 8.2 26.2 5.3 11.8 11.3 20.2 21.9 30.8C52.7 677.7 70.4 686.9 92 691c8.9 1.7 18 1.9 141.9 1.9 72.9.1 132.3-.1 132-.4-.3-.2-5.4-1.1-11.5-2-25.9-3.6-52.3-10.3-73.1-18.6-25.7-10.2-44.6-24.7-51.6-39.6l-3.1-6.8-.2-47.3c-.1-34.5.1-47.2 1-47.3.6-.1 46.9-.2 102.8-.3l101.7-.1V563c0 59.4-.3 53.4 2.7 56.3 1.4 1.4 5.1 3.3 8.2 4.2 10.1 3 30.4 2.4 38.7-1.1 6.1-2.5 6.4-3.5 6.5-26.3.2-39.8.1-52.6-.4-54.9-2.2-9.6-14.5-18.1-38.1-26.3-7.8-2.7-30.2-9.4-34.5-10.4-12.3-2.7-57.5-15.4-75-21-20.4-6.6-51.6-19.5-56.1-23.2-.8-.7-1.9-1.3-2.3-1.3-1 0-16.6-10-18.9-12.1-1.1-1-4-3.4-6.5-5.5-18.6-15-30.5-38.2-31.7-61.4-.8-16-.6-58.6.4-61.8.5-1.8 1-3.5 1-3.7.6-6.2 7.2-18.2 13.9-25.3 11.9-12.5 27.4-21.2 51.7-29.1 8.8-2.8 32-8.4 40-9.5 2.2-.4 4.9-.8 6-1 1.1-.2 4.3-.7 7-1 2.8-.4 8.6-1.1 13-1.8 4.4-.6 9.6-1.2 11.5-1.3 9-.6 22.8-1.7 26-2 22.8-2.1 108-2.1 123 0 1.4.2 5.9.6 10 1 4.1.3 9.1.8 11 1 1.9.3 5.5.7 8 1 6.4.7 13.2 1.7 15.5 2.1 1.7.3 7.4 1.4 16 2.9 20.5 3.6 48.6 12.7 66.5 21.6 23.3 11.5 38.4 25.1 45.4 41.1l2.3 5.2-.2-111c-.1-101.7-.3-111.6-1.9-118.8-6.1-27.8-20.9-49.6-44.3-65.2-8.8-6-23.4-12.3-32.3-14.2-3-.6-6.8-1.5-8.5-1.9-3.8-1-502.6-1.1-508-.2z"/><path d="M463 315c-6.6 1-12.8 3.8-13.6 6.3-.4 1.2-.7 15.4-.6 31.7 0 28.5.1 29.7 2.2 34.3 6 12.7 24.9 21.2 75.5 33.7 13.8 3.4 25.7 6.3 26.5 6.5 3.7.8 8 1.8 14.5 3.6 3.9 1.1 8.6 2.4 10.5 2.9 19.7 5.4 43.3 13.9 56.2 20.2 28 13.7 44 28.1 54.8 49.5l4 7.8V399.4l-102.1.1c-56.1 0-102.3-.4-102.6-.8-.3-.5-.5-18-.5-39 0-42.9.4-40.5-7.7-43.1-5.9-1.8-11.5-2.4-17.1-1.6z"/></svg>