<?xml version="1.0" standalone="no"?>
<!DOCTYPE svg PUBLIC "-//W3C//DTD SVG 20010904//EN"
 "http://www.w3.org/TR/2001/REC-SVG-20010904/DTD/svg10.dtd">
<svg version="1.0" xmlns="http://www.w3.org/2000/svg"
 width="16.000000pt" height="16.000000pt" viewBox="0 0 16.000000 16.000000"
 preserveAspectRatio="xMidYMid meet">
<metadata>
Created by potrace 1.11, written by Peter Selinger 2001-2013
</metadata>
<g transform="translate(0.000000,16.000000) scale(0.002286,-0.002286)"
fill="#000000" stroke="none">
<path d="M1397 6793 c-1 -1 -44 -3 -95 -4 -51 -2 -95 -7 -98 -11 -3 -5 -9 -6
-14 -3 -24 15 -225 -47 -345 -106 -300 -147 -536 -445 -606 -764 -7 -33 -13
-62 -14 -65 -15 -54 -18 -500 -18 -2350 1 -1213 3 -2223 6 -2246 34 -257 127
-470 283 -644 201 -225 452 -354 754 -386 56 -6 1660 -9 1825 -4 l60 2 -49 10
c-65 12 -104 41 -129 97 -21 45 -21 61 -22 530 -1 525 0 544 53 597 15 14 40
33 57 42 32 18 -81 16 1550 24 l510 3 34 24 c51 37 80 109 76 190 -5 104 -9
112 -64 174 -27 29 -63 42 -150 52 -30 4 -63 8 -74 11 -11 2 -43 6 -71 9 -28
3 -62 7 -76 10 -25 4 -66 10 -137 20 -21 3 -51 7 -68 10 -16 3 -50 7 -75 10
-25 3 -56 7 -70 10 -14 2 -45 7 -70 10 -25 3 -72 10 -105 15 -33 5 -80 12
-105 15 -25 3 -63 8 -85 12 -22 3 -53 7 -70 9 -16 1 -30 3 -30 4 0 1 -11 3
-25 5 -14 2 -36 6 -50 9 -414 88 -708 269 -830 511 -50 98 -60 126 -85 228
-16 67 -19 84 -32 187 -9 76 -9 1019 1 1103 8 77 9 78 30 169 56 241 207 462
416 607 116 82 290 160 435 197 17 4 32 8 35 9 3 0 21 4 40 8 19 4 46 9 60 12
14 3 41 8 60 10 19 3 53 8 75 11 22 4 634 9 1360 11 726 2 1325 5 1330 7 11 4
12 443 1 559 -27 298 -163 564 -394 769 -148 131 -368 235 -557 262 -22 4 -56
9 -75 13 -29 5 -4358 11 -4363 6z"/>
<path d="M4687 3864 c-1 -1 -19 -4 -39 -7 -83 -11 -138 -82 -146 -187 -4 -57
-1 -76 20 -122 47 -101 73 -110 442 -153 33 -4 69 -9 80 -11 12 -2 41 -7 66
-10 68 -8 99 -12 175 -23 39 -5 93 -13 120 -16 55 -7 82 -10 218 -30 21 -3 59
-7 85 -10 26 -3 54 -8 62 -10 8 -2 31 -7 50 -10 19 -3 78 -17 130 -31 52 -14
100 -27 105 -28 6 -2 19 -7 30 -11 11 -5 43 -17 70 -27 104 -40 252 -130 350
-213 139 -118 248 -353 270 -582 4 -40 10 -73 14 -73 9 0 6 1538 -3 1547 -6 6
-2093 12 -2099 7z"/>
<path d="M6782 2280 c0 -14 2 -19 5 -12 2 6 2 18 0 25 -3 6 -5 1 -5 -13z"/>
</g>
</svg>
